<svg xmlns="http://www.w3.org/2000/svg" xmlns:xlink="http://www.w3.org/1999/xlink" viewBox="0 0 45.37 37.83">
  <defs>
    <linearGradient id="cinema-gradient-1" data-name="New Gradient Swatch 1" x1="1.36" y1="4.9" x2="44.01" y2="4.9" gradientUnits="userSpaceOnUse">
      <stop offset="0" stop-color="#263746"/>
      <stop offset="1" stop-color="#99a4ae"/>
    </linearGradient>
    <linearGradient id="cinema-gradient-2" x1="1.36" y1="16.47" x2="44.01" y2="16.47" xlink:href="#cinema-gradient-1"/>
    <linearGradient id="cinema-gradient-3" x1="4.02" y1="10.69" x2="41.35" y2="10.69" xlink:href="#cinema-gradient-1"/>
    <linearGradient id="cinema-gradient-4" y1="30.49" x2="45.37" y2="30.49" xlink:href="#cinema-gradient-1"/>
  </defs>
  <path d="M2 9.81a.67.67 0 0 0 .67-.67V1.39a134.19 134.19 0 0 0 20 1.53 134.19 134.19 0 0 0 20-1.53v7.75a.67.67 0 0 0 1.33 0V1a1 1 0 0 0-1.19-1 134.16 134.16 0 0 1-20.12 1.58A134.16 134.16 0 0 1 2.55 0a1 1 0 0 0-1.19 1v8.14a.67.67 0 0 0 .64.67z" fill="url(#cinema-gradient-1)"/>
  <path d="M2 11.57a.67.67 0 0 0-.67.67v8.11a1 1 0 0 0 1 1h.17a134.18 134.18 0 0 1 20.14-1.57 134.17 134.17 0 0 1 20.14 1.57 1 1 0 0 0 1.19-1v-8.11a.67.67 0 0 0-1.33 0V20a134.19 134.19 0 0 0-20-1.53A134.19 134.19 0 0 0 2.69 20v-7.76a.67.67 0 0 0-.69-.67z" fill="url(#cinema-gradient-2)"/>
  <path d="M5.46 18.25a137.44 137.44 0 0 1 17.22-1.12 137.42 137.42 0 0 1 17.22 1.12A1.28 1.28 0 0 0 41.35 17V4.39a1.28 1.28 0 0 0-1.44-1.27 137.44 137.44 0 0 1-17.22 1.12A137.43 137.43 0 0 1 5.46 3.12 1.28 1.28 0 0 0 4 4.39V17a1.28 1.28 0 0 0 1.3 1.26zm-.11-13.8a138.79 138.79 0 0 0 17.34 1.12A138.8 138.8 0 0 0 40 4.45v12.47a138.78 138.78 0 0 0-17.31-1.12 138.79 138.79 0 0 0-17.34 1.12z" fill="url(#cinema-gradient-3)"/>
  <path d="M44.54 34.19h-1v-3.43a2.89 2.89 0 0 0-2.88-2.88h-1.13V26a2.89 2.89 0 0 0-2.88-2.88H33a2.88 2.88 0 0 0-2.22 1 2.88 2.88 0 0 0-2.22-1h-3.65a2.88 2.88 0 0 0-2.22 1 2.88 2.88 0 0 0-2.22-1h-3.64a2.88 2.88 0 0 0-2.22 1 2.88 2.88 0 0 0-2.22-1H8.74A2.89 2.89 0 0 0 5.86 26v1.85H4.68a2.89 2.89 0 0 0-2.88 2.91v3.43h-1A.83.83 0 0 0 0 35v2a.83.83 0 0 0 .83.83h43.71a.83.83 0 0 0 .83-.83v-2a.83.83 0 0 0-.83-.81zm-5.67-5h1.81a1.55 1.55 0 0 1 1.55 1.55v3.43h-6.76v-3.41-.12-.66l.05-.08.06-.08.07-.07.08-.07.09-.06.09-.05H38.4zM31.45 26A1.55 1.55 0 0 1 33 24.47h3.65A1.55 1.55 0 0 1 38.2 26v1.85H36.28a2.89 2.89 0 0 0-1.41.93 2.89 2.89 0 0 0-1.48-.78h-1.88zm-.67 3.18h2.42l.1.05.09.06.08.07.07.07.06.08.05.08v4.21h-6.27v-3.04-.12-.66l.05-.08.06-.08.07-.07.08-.07.09-.06.09-.05H30.31zm-5.87-4.73h3.65A1.55 1.55 0 0 1 30.12 26v1.85H28.2a2.89 2.89 0 0 0-1.41.93A2.89 2.89 0 0 0 25.3 28h-1.88v-2a1.55 1.55 0 0 1 1.49-1.53zm-.41 4.73h.64l.1.05.09.06.08.07.07.07.06.08.05.08v4.21H19.3v-3.04-.13a1.56 1.56 0 0 1 1.25-1.39h3.9zM15.28 26a1.55 1.55 0 0 1 1.55-1.55h3.65A1.55 1.55 0 0 1 22 26v1.85H20.43a2.86 2.86 0 0 0-1.76 1 2.87 2.87 0 0 0-2.21-1h-1.18zm-.67 3.18h1.81A1.55 1.55 0 0 1 18 30.76v3.43h-6.79v-3.43-.13a1.56 1.56 0 0 1 1.25-1.39h2.1zM7.19 26a1.55 1.55 0 0 1 1.55-1.55h3.65A1.55 1.55 0 0 1 13.94 26v1.85h-1.6a2.86 2.86 0 0 0-1.76 1 2.87 2.87 0 0 0-2.21-1H7.19zm-4.06 4.76a1.55 1.55 0 0 1 1.55-1.55h3.65a1.55 1.55 0 0 1 1.55 1.55v3.43H3.13zM44 36.5H1.33v-1H44z" fill="url(#cinema-gradient-4)"/>
</svg>