<svg xmlns="http://www.w3.org/2000/svg" xmlns:xlink="http://www.w3.org/1999/xlink" viewBox="0 0 42.29 41.97">
  <defs>
    <linearGradient id="design-planning" data-name="New Gradient Swatch 1" y1="20.99" x2="42.29" y2="20.99" gradientUnits="userSpaceOnUse">
      <stop offset="0" stop-color="#263746"/>
      <stop offset="1" stop-color="#99a4ae"/>
    </linearGradient>
    <linearGradient id="design-planning-2" x1="11.65" y1="20.99" x2="30.64" y2="20.99" xlink:href="#design-planning"/>
    <linearGradient id="design-planning-3" x1="16.95" y1="20.99" x2="25.34" y2="20.99" xlink:href="#design-planning"/>
    <linearGradient id="design-planning-4" x1="14.51" y1="24.05" x2="17.22" y2="24.05" xlink:href="#design-planning"/>
    <linearGradient id="design-planning-5" x1="17.64" y1="26.57" x2="19.65" y2="26.57" xlink:href="#design-planning"/>
    <linearGradient id="design-planning-6" x1="18.99" y1="14.99" x2="20.63" y2="14.99" xlink:href="#design-planning"/>
    <linearGradient id="design-planning-7" x1="22.64" y1="15.4" x2="24.65" y2="15.4" xlink:href="#design-planning"/>
    <linearGradient id="design-planning-8" x1="15.34" y1="16.91" x2="17.89" y2="16.91" xlink:href="#design-planning"/>
    <linearGradient id="design-planning-9" x1="21.66" y1="26.99" x2="23.3" y2="26.99" xlink:href="#design-planning"/>
    <linearGradient id="design-planning-10" x1="25.07" y1="17.91" x2="27.77" y2="17.91" xlink:href="#design-planning"/>
    <linearGradient id="design-planning-11" x1="24.4" y1="25.06" x2="26.95" y2="25.06" xlink:href="#design-planning"/>
    <linearGradient id="design-planning-12" x1="13.74" y1="20.29" x2="16.47" y2="20.29" xlink:href="#design-planning"/>
    <linearGradient id="design-planning-13" x1="25.97" y1="21.77" x2="28.7" y2="21.77" xlink:href="#design-planning"/>
    <linearGradient id="design-planning-14" x1="23.56" y1="38.91" x2="41.47" y2="38.91" xlink:href="#design-planning"/>
    <linearGradient id="design-planning-15" x1=".82" y1="3.06" x2="16.97" y2="3.06" xlink:href="#design-planning"/>
    <linearGradient id="design-planning-16" x1=".82" y1="6.63" x2="6.12" y2="6.63" xlink:href="#design-planning"/>
    <linearGradient id="design-planning-17" x1=".82" y1="9.28" x2="6.12" y2="9.28" xlink:href="#design-planning"/>
    <linearGradient id="design-planning-18" x1=".82" y1="3.98" x2="6.12" y2="3.98" xlink:href="#design-planning"/>
    <linearGradient id="design-planning-19" x1=".82" y1="11.93" x2="6.12" y2="11.93" xlink:href="#design-planning"/>
    <linearGradient id="design-planning-20" x1="34.4" y1="37.77" x2="35.73" y2="37.77" xlink:href="#design-planning"/>
    <linearGradient id="design-planning-21" x1="37.05" y1="37.77" x2="38.38" y2="37.77" xlink:href="#design-planning"/>
    <linearGradient id="design-planning-22" x1="39.7" y1="37.77" x2="41.03" y2="37.77" xlink:href="#design-planning"/>
    <linearGradient id="design-planning-23" x1="32.63" y1="20.99" x2="37.93" y2="20.99" xlink:href="#design-planning"/>
    <linearGradient id="design-planning-24" x1="4.36" y1="20.99" x2="9.66" y2="20.99" xlink:href="#design-planning"/>
    <linearGradient id="design-planning-25" x1="20.48" y1="20.99" x2="21.81" y2="20.99" xlink:href="#design-planning"/>
    <linearGradient id="design-planning-26" x1="34.84" y1=".66" x2="36.17" y2=".66" xlink:href="#design-planning"/>
    <linearGradient id="design-planning-27" x1="37.49" y1=".66" x2="38.82" y2=".66" xlink:href="#design-planning"/>
    <linearGradient id="design-planning-28" x1="40.14" y1=".66" x2="41.47" y2=".66" xlink:href="#design-planning"/>
    <linearGradient id="design-planning-29" x1="34.84" y1="3.31" x2="36.17" y2="3.31" xlink:href="#design-planning"/>
    <linearGradient id="design-planning-30" x1="40.14" y1="3.31" x2="41.47" y2="3.31" xlink:href="#design-planning"/>
    <linearGradient id="design-planning-31" x1="37.49" y1="3.31" x2="38.82" y2="3.31" xlink:href="#design-planning"/>
    <linearGradient id="design-planning-32" x1="32.19" y1="3.31" x2="33.52" y2="3.31" xlink:href="#design-planning"/>
    <linearGradient id="design-planning-33" x1="40.14" y1="5.96" x2="41.47" y2="5.96" xlink:href="#design-planning"/>
    <linearGradient id="design-planning-34" x1="32.19" y1="5.96" x2="33.52" y2="5.96" xlink:href="#design-planning"/>
    <linearGradient id="design-planning-35" x1="29.54" y1="5.96" x2="30.87" y2="5.96" xlink:href="#design-planning"/>
    <linearGradient id="design-planning-36" x1="37.49" y1="5.96" x2="38.82" y2="5.96" xlink:href="#design-planning"/>
    <linearGradient id="design-planning-37" x1="34.84" y1="5.96" x2="36.17" y2="5.96" xlink:href="#design-planning"/>
    <linearGradient id="design-planning-38" x1=".82" y1="38.22" x2="7.01" y2="38.22" xlink:href="#design-planning"/>
    <linearGradient id="design-planning-39" x1="7.89" y1="36.01" x2="14.08" y2="36.01" xlink:href="#design-planning"/>
  </defs>
  <path d="M42 20.59a40.56 40.56 0 0 0-6.06-6.3 31.33 31.33 0 0 0-6.6-4.34 19 19 0 0 0-8.2-2 19 19 0 0 0-8.2 2 31.34 31.34 0 0 0-6.6 4.34 40.56 40.56 0 0 0-6.06 6.3L0 21l.29.39a40.56 40.56 0 0 0 6.06 6.3 31.33 31.33 0 0 0 6.6 4.31 19 19 0 0 0 8.2 2 19 19 0 0 0 8.2-2 31.34 31.34 0 0 0 6.6-4.34A40.56 40.56 0 0 0 42 21.38l.29-.39zm-6.94 6.09c-3.27 2.74-8.33 6-13.92 6s-10.66-3.27-13.92-6A41.64 41.64 0 0 1 2 21.44a.71.71 0 0 1 0-.91 41.64 41.64 0 0 1 5.2-5.24c3.27-2.74 8.33-6 13.92-6s10.65 3.27 13.92 6a41.64 41.64 0 0 1 5.2 5.24.71.71 0 0 1 0 .91 41.63 41.63 0 0 1-5.17 5.24z" fill="url(#design-planning)"/>
  <path d="M21.15 11.49a9.5 9.5 0 1 0 9.5 9.5 9.51 9.51 0 0 0-9.5-9.5zm0 17.67A8.17 8.17 0 1 1 29.32 21a8.18 8.18 0 0 1-8.17 8.16z" fill="url(#design-planning-2)"/>
  <path d="M21.15 16.79a4.2 4.2 0 1 0 4.2 4.2 4.2 4.2 0 0 0-4.2-4.2zm0 7.07A2.87 2.87 0 1 1 24 21a2.88 2.88 0 0 1-2.85 2.86z" fill="url(#design-planning-3)"/>
  <path d="M14.6 24.66l.1.17a.63.63 0 0 0 .91.19l1.61-1.18a4.86 4.86 0 0 1-.51-.88l-1.82.81a.63.63 0 0 0-.29.89z" fill="url(#design-planning-4)"/>
  <path d="M18 27.81l.18.08a.63.63 0 0 0 .85-.38l.62-1.9a4.84 4.84 0 0 1-.93-.41l-1 1.73a.63.63 0 0 0 .28.88z" fill="url(#design-planning-5)"/>
  <path d="M20.63 16.15l-.21-2a.63.63 0 0 0-.75-.55h-.19a.63.63 0 0 0-.46.81l.62 1.9a4.83 4.83 0 0 1 .99-.16z" fill="url(#design-planning-6)"/>
  <path d="M24.28 14.16l-.18-.08a.63.63 0 0 0-.85.38l-.61 1.9a4.84 4.84 0 0 1 .93.41l1-1.73a.63.63 0 0 0-.29-.88z" fill="url(#design-planning-7)"/>
  <path d="M17.89 17.38l-1.34-1.48a.63.63 0 0 0-.93 0l-.13.14a.63.63 0 0 0 .1.92l1.62 1.17a4.91 4.91 0 0 1 .68-.75z" fill="url(#design-planning-8)"/>
  <path d="M21.66 25.82l.21 2a.63.63 0 0 0 .75.55h.19a.63.63 0 0 0 .46-.81l-.62-1.9a4.85 4.85 0 0 1-.99.16z" fill="url(#design-planning-9)"/>
  <path d="M25.58 19l1.82-.82a.63.63 0 0 0 .29-.88l-.1-.17a.63.63 0 0 0-.91-.19l-1.61 1.18a4.85 4.85 0 0 1 .51.88z" fill="url(#design-planning-10)"/>
  <path d="M24.4 24.6l1.34 1.48a.63.63 0 0 0 .93 0l.13-.14a.63.63 0 0 0-.1-.92l-1.61-1.17a4.9 4.9 0 0 1-.69.75z" fill="url(#design-planning-11)"/>
  <path d="M16.47 20l-2-.42a.63.63 0 0 0-.75.54v.19a.63.63 0 0 0 .62.69h2a4.91 4.91 0 0 1 .13-1z" fill="url(#design-planning-12)"/>
  <path d="M26 22.06l2 .42a.63.63 0 0 0 .75-.54v-.19a.63.63 0 0 0-.62-.69h-2a4.9 4.9 0 0 1-.13 1z" fill="url(#design-planning-13)"/>
  <path d="M23.8 36a.66.66 0 0 0-.08.93l4 4.79a.66.66 0 0 0 .51.24h12.58a.66.66 0 0 0 .66-.66.66.66 0 0 0-.66-.66h-12a.66.66 0 0 1-.51-.24l-3.6-4.32a.66.66 0 0 0-.9-.08z" fill="url(#design-planning-14)"/>
  <path d="M16.73 6a.66.66 0 0 0 .08-1l-4-4.79a.66.66 0 0 0-.5-.21H1.49a.66.66 0 0 0-.67.66.66.66 0 0 0 .66.66h10.2a.66.66 0 0 1 .51.24l3.6 4.32a.66.66 0 0 0 .94.12z" fill="url(#design-planning-15)"/>
  <rect x=".82" y="5.96" width="5.3" height="1.33" rx=".66" ry=".66" fill="url(#design-planning-16)"/>
  <rect x=".82" y="8.62" width="5.3" height="1.33" rx=".66" ry=".66" fill="url(#design-planning-17)"/>
  <rect x=".82" y="3.31" width="5.3" height="1.33" rx=".66" ry=".66" fill="url(#design-planning-18)"/>
  <rect x=".82" y="11.27" width="5.3" height="1.33" rx=".66" ry=".66" fill="url(#design-planning-19)"/>
  <rect x="34.4" y="37.11" width="1.33" height="1.33" rx=".66" ry=".66" fill="url(#design-planning-20)"/>
  <rect x="37.05" y="37.11" width="1.33" height="1.33" rx=".66" ry=".66" fill="url(#design-planning-21)"/>
  <rect x="39.7" y="37.11" width="1.33" height="1.33" rx=".66" ry=".66" fill="url(#design-planning-22)"/>
  <rect x="32.63" y="20.32" width="5.3" height="1.33" rx=".66" ry=".66" fill="url(#design-planning-23)"/>
  <rect x="4.36" y="20.32" width="5.3" height="1.33" rx=".66" ry=".66" fill="url(#design-planning-24)"/>
  <rect x="20.48" y="20.32" width="1.33" height="1.33" rx=".66" ry=".66" fill="url(#design-planning-25)"/>
  <rect x="34.84" width="1.33" height="1.33" rx=".66" ry=".66" fill="url(#design-planning-26)"/>
  <rect x="37.49" width="1.33" height="1.33" rx=".66" ry=".66" fill="url(#design-planning-27)"/>
  <rect x="40.14" width="1.33" height="1.33" rx=".66" ry=".66" fill="url(#design-planning-28)"/>
  <rect x="34.84" y="2.65" width="1.33" height="1.33" rx=".66" ry=".66" fill="url(#design-planning-29)"/>
  <rect x="40.14" y="2.65" width="1.33" height="1.33" rx=".66" ry=".66" fill="url(#design-planning-30)"/>
  <rect x="37.49" y="2.65" width="1.33" height="1.33" rx=".66" ry=".66" fill="url(#design-planning-31)"/>
  <rect x="32.19" y="2.65" width="1.33" height="1.33" rx=".66" ry=".66" fill="url(#design-planning-32)"/>
  <rect x="40.14" y="5.3" width="1.33" height="1.33" rx=".66" ry=".66" fill="url(#design-planning-33)"/>
  <rect x="32.19" y="5.3" width="1.33" height="1.33" rx=".66" ry=".66" fill="url(#design-planning-34)"/>
  <rect x="29.54" y="5.3" width="1.33" height="1.33" rx=".66" ry=".66" fill="url(#design-planning-35)"/>
  <rect x="37.49" y="5.3" width="1.33" height="1.33" rx=".66" ry=".66" fill="url(#design-planning-36)"/>
  <rect x="34.84" y="5.3" width="1.33" height="1.33" rx=".66" ry=".66" fill="url(#design-planning-37)"/>
  <path d="M3.92 35.12a.66.66 0 0 0-.66.66v1.1a.66.66 0 0 1-.66.66H1.49a.66.66 0 0 0-.66.66.66.66 0 0 0 .66.66h1.1a.66.66 0 0 1 .66.66v1.1a.66.66 0 0 0 .66.66.66.66 0 0 0 .66-.66v-1.1a.66.66 0 0 1 .66-.66h1.1a.66.66 0 0 0 .67-.64.66.66 0 0 0-.66-.66h-1.1a.66.66 0 0 1-.66-.66v-1.1a.66.66 0 0 0-.66-.68z" fill="url(#design-planning-38)"/>
  <rect x="7.89" y="35.34" width="6.19" height="1.33" rx=".66" ry=".66" fill="url(#design-planning-39)"/>
</svg>