<svg xmlns="http://www.w3.org/2000/svg" xmlns:xlink="http://www.w3.org/1999/xlink" viewBox="0 0 45.45 40.8">
  <defs>
    <linearGradient id="device" data-name="New Gradient Swatch 1" y1="33.99" x2="45.45" y2="33.99" gradientUnits="userSpaceOnUse">
      <stop offset="0" stop-color="#263746"/>
      <stop offset="1" stop-color="#99a4ae"/>
    </linearGradient>
    <linearGradient id="device-2" x1="4.17" y1="5.99" x2="41.29" y2="5.99" xlink:href="#device"/>
  </defs>
  <path d="M42 27.17H8.45a.65.65 0 0 0 0 1.29H42a2.16 2.16 0 0 1 2.16 2.16v6.72A2.16 2.16 0 0 1 42 39.51H3a1.73 1.73 0 0 1-1.73-1.73V30.2A1.73 1.73 0 0 1 3 28.47h2.35a.65.65 0 0 0 0-1.29H3a3 3 0 0 0-3 3v7.58a3 3 0 0 0 3 3h39a3.46 3.46 0 0 0 3.46-3.46v-6.67A3.46 3.46 0 0 0 42 27.17zm0 0" fill="url(#device)"/>
  <path d="M8.52 30.5A3.49 3.49 0 1 0 12 34a3.49 3.49 0 0 0-3.48-3.5zm0 5.68a2.2 2.2 0 1 1 2.2-2.2 2.2 2.2 0 0 1-2.2 2.2zm0 0M38.7 31.36H17.95a1.72 1.72 0 0 0-1.72 1.72v1.82a1.72 1.72 0 0 0 1.72 1.72H38.7a1.72 1.72 0 0 0 1.72-1.72v-1.82a1.72 1.72 0 0 0-1.72-1.72zm.42 3.54a.42.42 0 0 1-.42.42H17.95a.42.42 0 0 1-.42-.42v-1.82a.42.42 0 0 1 .42-.42H38.7a.42.42 0 0 1 .42.42zm0 0M35.44 13.42a18 18 0 0 0-25.42 0 2.7 2.7 0 1 0 3.82 3.82 12.57 12.57 0 0 1 17.78 0 2.7 2.7 0 0 0 3.82-3.82zm-.91 2.91a1.41 1.41 0 0 1-2 0 13.86 13.86 0 0 0-19.61 0 1.41 1.41 0 1 1-2-2 16.68 16.68 0 0 1 23.59 0 1.41 1.41 0 0 1 0 2zm0 0"/>
  <path d="M40.49 7.36a25.11 25.11 0 0 0-7.12-5 .65.65 0 1 0-.55 1.17 23.82 23.82 0 0 1 6.76 4.75 1.41 1.41 0 1 1-2 2 21 21 0 0 0-29.72 0 1.41 1.41 0 0 1-2-2A23.91 23.91 0 0 1 30 2.43a.65.65 0 0 0 .39-1.23A25.2 25.2 0 0 0 5 7.36a2.7 2.7 0 0 0 3.82 3.82 19.72 19.72 0 0 1 27.89 0 2.7 2.7 0 1 0 3.82-3.82zm0 0" fill="url(#device-2)"/>
  <path d="M30.65 19.46a11.22 11.22 0 0 0-15.84 0 2.7 2.7 0 0 0 3.82 3.82 5.8 5.8 0 0 1 8.2 0 2.7 2.7 0 0 0 3.82-3.82zm-.92 2.91a1.41 1.41 0 0 1-2 0 7.1 7.1 0 0 0-10 0 1.41 1.41 0 0 1-2-2 9.92 9.92 0 0 1 14 0 1.41 1.41 0 0 1 0 2zm0 0"/>
</svg>