<svg xmlns="http://www.w3.org/2000/svg" xmlns:xlink="http://www.w3.org/1999/xlink" viewBox="0 0 45.29 43.19">
  <defs>
    <linearGradient id="house" data-name="New Gradient Swatch 1" x1="10.03" y1="25.52" x2="14.23" y2="25.52" gradientUnits="userSpaceOnUse">
      <stop offset="0" stop-color="#263746"/>
      <stop offset="1" stop-color="#99a4ae"/>
    </linearGradient>
    <linearGradient id="house-2" x1="16.86" y1="25.52" x2="21.05" y2="25.52" xlink:href="#house"/>
    <linearGradient id="house-3" x1="5.35" y1="26.29" x2="45.29" y2="26.29" xlink:href="#house"/>
    <linearGradient id="house-4" x1="9.7" y1="33.59" x2="14.56" y2="33.59" xlink:href="#house"/>
    <linearGradient id="house-5" x1="30.17" y1="33.59" x2="35.02" y2="33.59" xlink:href="#house"/>
    <linearGradient id="house-6" x1="23.34" y1="33.59" x2="28.2" y2="33.59" xlink:href="#house"/>
    <linearGradient id="house-7" x1="16.52" y1="33.59" x2="21.38" y2="33.59" xlink:href="#house"/>
    <linearGradient id="house-8" x1="7.54" y1="25.52" x2="37.19" y2="25.52" xlink:href="#house"/>
    <linearGradient id="house-9" y1="14.18" x2="31.89" y2="14.18" xlink:href="#house"/>
    <linearGradient id="house-10" x1="30.6" y1="26.97" x2="35.02" y2="26.97" xlink:href="#house"/>
    <linearGradient id="house-11" x1="23.56" y1="26.97" x2="27.98" y2="26.97" xlink:href="#house"/>
  </defs>
  <path d="M10.22 27.43a.64.64 0 0 0 .91 0l1-1 1 1a.64.64 0 0 0 .91-.91l-1-1 1-1a.64.64 0 0 0-.91-.91l-1 1-1-1a.64.64 0 1 0-.91.91l1 1-1 1a.64.64 0 0 0 0 .91z" fill="url(#house)"/>
  <path d="M17 27.43a.64.64 0 0 0 .91 0l1-1 1 1a.64.64 0 0 0 .91-.91l-1-1 1-1a.64.64 0 1 0-.91-.91l-1 1-1-1a.64.64 0 1 0-.91.91l1 1-1 1a.64.64 0 0 0 0 .91z" fill="url(#house-2)"/>
  <path d="M44.94 19.08L34 9.55a.64.64 0 0 0-.85 1l10.37 9h-4.23a.64.64 0 0 0-.64.64v21.37a.34.34 0 0 1-.34.34H7a.34.34 0 0 1-.34-.34V30.79a.64.64 0 1 0-1.29 0v10.77A1.63 1.63 0 0 0 7 43.19h31.31a1.63 1.63 0 0 0 1.63-1.63V20.83h4.35a1 1 0 0 0 .65-1.75z" fill="url(#house-3)"/>
  <path d="M10.82 31.17a1.12 1.12 0 0 0-1.12 1.11v2.63A1.12 1.12 0 0 0 10.82 36h2.63a1.12 1.12 0 0 0 1.12-1.12v-2.6a1.12 1.12 0 0 0-1.12-1.12zm2.45 3.57H11v-2.28h2.28z" fill="url(#house-4)"/>
  <path d="M31.28 31.17a1.12 1.12 0 0 0-1.12 1.12v2.63A1.12 1.12 0 0 0 31.28 36h2.63A1.12 1.12 0 0 0 35 34.91v-2.63a1.12 1.12 0 0 0-1.12-1.12zm2.45 3.57h-2.27v-2.28h2.28z" fill="url(#house-5)"/>
  <path d="M24.46 31.17a1.12 1.12 0 0 0-1.12 1.12v2.63A1.12 1.12 0 0 0 24.46 36h2.63a1.12 1.12 0 0 0 1.12-1.12v-2.6a1.12 1.12 0 0 0-1.12-1.12zm2.45 3.57h-2.28v-2.28h2.28z" fill="url(#house-6)"/>
  <path d="M17.64 31.17a1.12 1.12 0 0 0-1.12 1.12v2.63A1.12 1.12 0 0 0 17.64 36h2.63a1.12 1.12 0 0 0 1.12-1.12v-2.6a1.12 1.12 0 0 0-1.12-1.12zm2.45 3.57h-2.28v-2.28h2.28z" fill="url(#house-7)"/>
  <path d="M37.19 28.84V22.2a.87.87 0 0 0-.87-.87H8.41a.87.87 0 0 0-.87.87v6.65a.87.87 0 0 0 .87.87h27.91a.87.87 0 0 0 .87-.88zm-1.29-.42H8.83v-5.8H35.9z" fill="url(#house-8)"/>
  <path d="M5.35 27.72a.64.64 0 1 0 1.29 0v-7.53a.64.64 0 0 0-.64-.65H1.78l6-5.26a.65.65 0 0 0 .22-.49V7.07h4.42v1.76a.64.64 0 0 0 1.07.49l9.11-7.93 8.22 7.11a.64.64 0 1 0 .85-1L23.29.24a1 1 0 0 0-1.3 0l-7.13 6.21a1 1 0 0 0 .08-.39V4.17a1 1 0 0 0-1-1H6.36a1 1 0 0 0-1 1v1.9a1 1 0 0 0 1 1h.4v6.43L.34 19.08A1 1 0 0 0 1 20.83h4.35zM6.64 5.78V4.45h7v1.33z" fill="url(#house-9)"/>
  <path d="M31.25 27.62h3.13a.64.64 0 1 0 0-1.29h-3.13a.64.64 0 1 0 0 1.29z" fill="url(#house-10)"/>
  <path d="M24.21 27.62h3.13a.64.64 0 1 0 0-1.29h-3.13a.64.64 0 1 0 0 1.29z" fill="url(#house-11)"/>
</svg>