<svg xmlns="http://www.w3.org/2000/svg" xmlns:xlink="http://www.w3.org/1999/xlink" viewBox="0 0 37.64 38.46">
  <defs>
    <linearGradient id="plug" data-name="New Gradient Swatch 1" y1="22.83" x2="37.64" y2="22.83" gradientUnits="userSpaceOnUse">
      <stop offset="0" stop-color="#263746"/>
      <stop offset="1" stop-color="#99a4ae"/>
    </linearGradient>
    <linearGradient id="plug-2" y1="15.22" x2="37.64" y2="15.22" xlink:href="#plug"/>
    <linearGradient id="plug-3" x1="4.6" y1="18.97" x2="32.66" y2="18.97" xlink:href="#plug"/>
  </defs>
  <path d="M36.74 7.21a.91.91 0 0 0-.91.91V35.8a.85.85 0 0 1-.85.85H2.66a.85.85 0 0 1-.85-.85v-3.16a.91.91 0 0 0-1.81 0v3.16a2.67 2.67 0 0 0 2.66 2.66H35a2.67 2.67 0 0 0 2.66-2.66V8.11a.91.91 0 0 0-.92-.9z" fill="url(#plug)"/>
  <path d="M35 0H2.66A2.67 2.67 0 0 0 0 2.66v26.87a.91.91 0 1 0 1.81 0V2.66a.85.85 0 0 1 .85-.85H35a.85.85 0 0 1 .85.85V5a.91.91 0 0 0 1.81 0V2.66A2.67 2.67 0 0 0 35 0z" fill="url(#plug-2)"/>
  <path d="M21.24 19.28v-7.69a2.12 2.12 0 0 0-2.12-2.12h-1.45a2.12 2.12 0 0 0-2.12 2.12v2.84a.76.76 0 1 0 1.51 0v-2.84a.6.6 0 0 1 .6-.6h1.46a.6.6 0 0 1 .6.6v7.69a.6.6 0 0 1-.6.6h-1.45a.6.6 0 0 1-.6-.6v-2.44a.76.76 0 1 0-1.51 0v2.44a2.12 2.12 0 0 0 2.12 2.12h1.46a2.12 2.12 0 0 0 2.1-2.12zm11.42 7.07v-1.46a2.12 2.12 0 0 0-2.12-2.12h-7.68a2.12 2.12 0 0 0-2.12 2.12v1.46a2.12 2.12 0 0 0 2.12 2.12h2.84a.76.76 0 1 0 0-1.51h-2.84a.6.6 0 0 1-.6-.6v-1.47a.6.6 0 0 1 .6-.6h7.69a.6.6 0 0 1 .6.6v1.46a.6.6 0 0 1-.6.6h-2.44a.76.76 0 1 0 0 1.51h2.44a2.12 2.12 0 0 0 2.11-2.11zm-16.14 0v-1.46a2.12 2.12 0 0 0-2.12-2.12h-3.47a.76.76 0 1 0 0 1.51h3.48a.6.6 0 0 1 .6.6v1.46a.6.6 0 0 1-.6.6H6.72a.6.6 0 0 1-.6-.6v-1.45a.6.6 0 0 1 .6-.6h1.8a.76.76 0 0 0 0-1.51h-1.8a2.12 2.12 0 0 0-2.12 2.11v1.46a2.12 2.12 0 0 0 2.12 2.12h7.69a2.12 2.12 0 0 0 2.12-2.12z" fill="url(#plug-3)"/>
</svg>