<svg xmlns="http://www.w3.org/2000/svg" viewBox="0 0 45.42 42.99">
  <path d="M45.38 10a1.32 1.32 0 0 0-1-1L19.9 2.58a.65.65 0 1 0-.33 1.25l24.53 6.4-1.27 1.06a4.29 4.29 0 0 1-2 .93h-.63a4.32 4.32 0 0 1-1-.1h-.15l-5.91-1.54a5.44 5.44 0 0 0-4.5.8l-.38.29L28 12l-.18.16h-.06l-.13.1h-.07l-.16.11-.11.07-.11.06-.11.06h-.08l-.13.06a4.12 4.12 0 0 1-.54.2 4.19 4.19 0 0 1-2.21 0l-15.86-4-.63-.16a.79.79 0 0 1-.57-1l1.43-5.45A1.23 1.23 0 0 1 10 1.33l6.58 1.72a.65.65 0 0 0 .33-1.25L10.31.08a2.52 2.52 0 0 0-3.08 1.81L5.8 7.36A2.09 2.09 0 0 0 7.29 9.9l-.79 3a2.35 2.35 0 0 0 1.68 2.86l6.26 1.63a2.42 2.42 0 0 0 1.78 2.72h.16l-3.93 7.79c-2.9 1.09-5.8 2.17-7.8 2.9v-3a2.28 2.28 0 0 0-2.28-2.28H.65a.65.65 0 0 0-.65.65v16.17a.65.65 0 0 0 .65.66h1.71a2.28 2.28 0 0 0 2.29-2.3v-5.39c.75-.27 2.1-.76 4.53-1.67a.65.65 0 1 0-.45-1.21l-4.08 1.51v-1.76c2.06-.74 5.28-2 8.49-3.15a.65.65 0 0 0 .35-.31l4.17-8.19 1.79.47-4.73 8.94a.82.82 0 0 1-.45.41l-2.63 1a.65.65 0 1 0 .45 1.21l2.63-1a2.1 2.1 0 0 0 1.15-1l4.86-9.2 1.07.28a2.41 2.41 0 0 0 .61.08 2.42 2.42 0 0 0 2.27-1.58l10.91 2.85a1.58 1.58 0 0 0 1.81-.81 6.24 6.24 0 0 0 4.72-4.65 6.62 6.62 0 0 0-.24-4.13 5.57 5.57 0 0 0 1.8-1l1.27-1.06a1.32 1.32 0 0 0 .43-1.34zm-42 21.75v9a1 1 0 0 1-1 1H1.29V26.77h1.07a1 1 0 0 1 1 1zm19.03-11.36a1.12 1.12 0 0 1-.29 0l-5.58-1.46a1.13 1.13 0 0 1-.84-1.14l6.14 1.6 1.57.41a1.13 1.13 0 0 1-1 .62zm13.73 1a.65.65 0 0 0 0 .26.29.29 0 0 1-.15 0h-.07L8.51 14.54a1.05 1.05 0 0 1-.75-1.29l.79-3 15.22 4a5.51 5.51 0 0 0 1.39.18 5.43 5.43 0 0 0 3.53-1.3l.19-.17.18-.16h.06l.13-.1.07-.05.15-.1.11-.07.11-.06.12-.06h.07a4.17 4.17 0 0 1 .68-.27 4.19 4.19 0 0 1 2.22 0l3.25.85 2.22.58zm4.72-4.23a5.08 5.08 0 0 1-3.06 3.53l1.84-7.06a5.61 5.61 0 0 0 .93 0 5.29 5.29 0 0 1 .28 3.54zm0 0"/>
</svg>