<svg xmlns="http://www.w3.org/2000/svg" xmlns:xlink="http://www.w3.org/1999/xlink" viewBox="0 0 21.07 42.83">
  <defs>
    <linearGradient id="thermometer" data-name="New Gradient Swatch 1" x1="2.65" y1="18.41" x2="14.72" y2="18.41" gradientUnits="userSpaceOnUse">
      <stop offset="0" stop-color="#263746"/>
      <stop offset="1" stop-color="#99a4ae"/>
    </linearGradient>
    <linearGradient id="thermometer-2" y1="25.3" x2="13.75" y2="25.3" xlink:href="#thermometer"/>
  </defs>
  <path d="M12.68 30.38a2.16 2.16 0 0 1-.6-1.5V4.71a4.71 4.71 0 0 0-9.43 0v.78a.61.61 0 0 0 1.22 0v-.78a3.5 3.5 0 0 1 7 0v24.17a3.38 3.38 0 0 0 .94 2.35 6.11 6.11 0 0 1 1.7 4.24 6.2 6.2 0 0 1 0 .68.61.61 0 0 0 .54.67h.07a.61.61 0 0 0 .6-.54 7.36 7.36 0 0 0-2-5.89zm0 0" fill="url(#thermometer)"/>
  <path d="M13.46 38.43a.61.61 0 0 0-.84.21 6.14 6.14 0 1 1-9.7-7.41 3.39 3.39 0 0 0 .95-2.35V8.39a.61.61 0 1 0-1.22 0v20.49A2.18 2.18 0 0 1 2 30.39a7.36 7.36 0 0 0 5.18 12.43h.17a7.39 7.39 0 0 0 6.31-3.56.61.61 0 0 0-.21-.84zm0 0" fill="url(#thermometer-2)"/>
  <path d="M11.27 31.73a4.11 4.11 0 0 1-1.15-2.85v-19a2.76 2.76 0 1 0-5.53 0v19a4.12 4.12 0 0 1-1.15 2.86 5.41 5.41 0 0 0 3.78 9.14h.13a5.41 5.41 0 0 0 3.91-9.15zm-.95 6.7a4.19 4.19 0 0 1-6-5.85 5.33 5.33 0 0 0 1.49-3.7v-19a1.54 1.54 0 1 1 3.09 0v19a5.32 5.32 0 0 0 1.48 3.7 4.19 4.19 0 0 1-.07 5.86zm0 0M19.59 2.63H15a1.48 1.48 0 0 0 0 3h4.61a1.48 1.48 0 1 0 0-3zm0 1.74H15a.26.26 0 1 1 0-.53h4.61a.26.26 0 0 1 0 .53zm0 0M19.59 13.05H15a1.48 1.48 0 0 0 0 3h4.61a1.48 1.48 0 0 0 0-3zm0 1.74H15a.26.26 0 1 1 0-.53h4.61a.26.26 0 0 1 0 .53zm0 0M19.59 23.47H15a1.48 1.48 0 0 0 0 3h4.61a1.48 1.48 0 0 0 0-3zm0 1.74H15a.26.26 0 1 1 0-.53h4.61a.26.26 0 0 1 0 .53zm0 0M17.67 7.84H15a1.48 1.48 0 0 0 0 3h2.69a1.48 1.48 0 1 0 0-3zm0 1.74H15a.26.26 0 1 1 0-.53h2.69a.26.26 0 1 1 0 .53zm0 0M17.67 18.26H15a1.48 1.48 0 0 0 0 3h2.69a1.48 1.48 0 1 0 0-3zm0 1.74H15a.26.26 0 1 1 0-.53h2.69a.26.26 0 1 1 0 .53zm0 0"/>
</svg>