<?xml version="1.0" standalone="no"?>
<!DOCTYPE svg PUBLIC "-//W3C//DTD SVG 20010904//EN"
 "http://www.w3.org/TR/2001/REC-SVG-20010904/DTD/svg10.dtd">
<svg version="1.0" xmlns="http://www.w3.org/2000/svg"
 width="260.000000pt" height="260.000000pt" viewBox="0 0 260.000000 260.000000"
 preserveAspectRatio="xMidYMid meet">
<metadata>
Created by potrace 1.11, written by Peter Selinger 2001-2013
</metadata>
<g transform="translate(0.000000,260.000000) scale(0.100000,-0.100000)"
fill="#000000" stroke="none">
<path d="M0 1300 l0 -1300 1300 0 1300 0 0 1300 0 1300 -1300 0 -1300 0 0
-1300z m681 483 c26 -11 65 -38 88 -58 l41 -37 0 56 0 56 50 0 50 0 0 -390 0
-390 -50 0 -50 0 0 56 0 56 -46 -41 c-140 -123 -373 -113 -509 24 -70 69 -108
159 -113 266 -10 201 92 356 273 416 60 19 209 12 266 -14z m1542 -3 c74 -28
164 -110 199 -182 103 -210 21 -462 -180 -556 -50 -23 -70 -27 -157 -27 -87 0
-107 3 -155 26 -30 14 -72 43 -92 63 l-38 37 0 -181 0 -180 -50 0 -50 0 0 505
0 505 45 0 45 0 0 -55 c0 -30 4 -55 8 -55 5 0 21 14 38 31 90 95 245 122 387
69z m-1039 -293 l120 -308 93 238 c52 131 106 270 121 308 l28 70 43 3 c24 2
49 1 57 -2 10 -4 -27 -103 -137 -378 -83 -205 -154 -377 -159 -381 -4 -4 -31
-2 -60 5 l-53 14 -138 359 c-76 198 -139 366 -139 373 0 9 14 12 52 10 l52 -3
120 -308z"/>
<path d="M434 1694 c-58 -21 -114 -72 -149 -135 -24 -45 -30 -69 -33 -141 -4
-76 -1 -93 20 -140 48 -105 145 -170 253 -171 33 0 77 7 97 16 57 24 133 101
159 160 32 74 32 182 0 254 -27 60 -93 126 -154 154 -50 22 -134 24 -193 3z"/>
<path d="M2025 1711 c-184 -48 -280 -261 -197 -436 30 -61 85 -120 144 -152
54 -29 170 -24 234 9 121 63 182 197 154 334 -15 72 -31 104 -77 155 -65 71
-178 111 -258 90z"/>
</g>
</svg>
