<svg viewBox="0 0 186 177" xmlns="http://www.w3.org/2000/svg" fill-rule="evenodd" clip-rule="evenodd" stroke-linejoin="round" stroke-miterlimit="1.41">
  <g fill-rule="nonzero">
    <path d="M90.6 1.35L56.85 30.7v-4h.72a4.13 4.13 0 0 0 4.13-4.13V14.8a4.13 4.13 0 0 0-4.13-4.13H26.6a4.13 4.13 0 0 0-4.13 4.13v7.77a4.13 4.13 0 0 0 4.13 4.12h1.65v28.92L1.97 78.47a4.03 4.03 0 0 0-1.14 4.5c.6 1.6 2.1 2.65 3.82 2.65h17.8v28.2a2.64 2.64 0 0 0 5.28 0V82.99a2.63 2.63 0 0 0-2.63-2.64H7.86L32.62 58.8c.57-.5.9-1.22.9-1.99V26.7H51.6v9.8a2.63 2.63 0 0 0 4.37 1.99L93.24 6.03l33.48 29.14a2.64 2.64 0 1 0 3.46-3.98L95.9 1.35a4.03 4.03 0 0 0-5.3 0zm-62.85 14.6h28.68v5.47H27.75v-5.47z" fill="url(#building-management-1)"/>
    <path d="M114.91 77.29a2.39 2.39 0 1 0 0 4.77h20.35v27.95h-2.1c-.06 0-.1.02-.15.03-.06 0-.1-.03-.14-.03h-26.31V82.06h1.34a2.4 2.4 0 0 0 2.4-2.38 2.4 2.4 0 0 0-2.4-2.4h-2.12a4 4 0 0 0-4 4v29.52a4 4 0 0 0 4 4h27.09c.04 0 .08-.04.14-.04l.15.03h2.88a4 4 0 0 0 4-4V81.29a4 4 0 0 0-4-4H114.9z" fill="url(#building-management-2)"/>
    <path d="M54 77.29c-2.2 0-4 1.75-4 3.9v20.72c0 1.3 1.08 2.34 2.4 2.34a2.37 2.37 0 0 0 2.38-2.34V81.97h27.95v2.06c0 .05.03.1.03.14 0 .05-.03.1-.03.14v25.8H54.78v-1.32c0-1.3-1.07-2.35-2.38-2.35a2.38 2.38 0 0 0-2.4 2.35v2.09c0 2.15 1.8 3.91 4 3.91h29.52c2.2 0 4-1.76 4-3.91V84.3c0-.04-.03-.09-.04-.14 0-.05.03-.1.03-.14V81.2c0-2.16-1.79-3.91-3.99-3.91H54z" fill="url(#bulding-management-3)"/>
    <path d="M22.45 125.95v44.1a6.66 6.66 0 0 0 6.66 6.65h77.45v-46.5h1.34a2.4 2.4 0 0 0 2.4-2.4 2.4 2.4 0 0 0-2.4-2.38h-2.13a4 4 0 0 0-3.99 4v42.01H29.11c-.76 0-1.38-.62-1.38-1.38v-44.1a2.64 2.64 0 0 0-5.28 0z" fill="url(#building-management-4)"/>
    <path d="M135.94 39.27a2.64 2.64 0 0 0 .25 3.73l42.43 36.92H161.4a2.64 2.64 0 0 0-2.64 2.64v87.49c0 .76-.62 1.38-1.38 1.38h-17.35v-42.02a4 4 0 0 0-4-4h-21.12a2.39 2.39 0 0 0 0 4.79h20.35V176.7h22.12a6.66 6.66 0 0 0 6.65-6.65V85.2h17.82a4.04 4.04 0 0 0 3.8-2.65c.6-1.6.16-3.37-1.14-4.5l-44.86-39.03a2.63 2.63 0 0 0-3.71.25z" fill="url(#building-management-5)"/>
  </g>
  <defs>
    <linearGradient id="building-management-1" x2="1" gradientUnits="userSpaceOnUse" gradientTransform="translate(.57 58.41) scale(130.52)">
      <stop offset="0" stop-color="#30353a"/>
      <stop offset="1" stop-color="#9fa3a6"/>
    </linearGradient>
    <linearGradient id="building-management-2" x2="1" gradientUnits="userSpaceOnUse" gradientTransform="translate(101.78 96.04) scale(38.2528)">
      <stop offset="0" stop-color="#30353a"/>
      <stop offset="1" stop-color="#9fa3a6"/>
    </linearGradient>
    <linearGradient id="bulding-management-3" x2="1" gradientUnits="userSpaceOnUse" gradientTransform="translate(50 96.04) scale(37.5081)">
      <stop offset="0" stop-color="#30353a"/>
      <stop offset="1" stop-color="#9fa3a6"/>
    </linearGradient>
    <linearGradient id="building-management-4" x2="1" gradientUnits="userSpaceOnUse" gradientTransform="translate(22.46 150.01) scale(87.838)">
      <stop offset="0" stop-color="#30353a"/>
      <stop offset="1" stop-color="#9fa3a6"/>
    </linearGradient>
    <linearGradient id="building-management-5" x2="1" gradientUnits="userSpaceOnUse" gradientTransform="translate(112.53 107.54) scale(73.396)">
      <stop offset="0" stop-color="#30353a"/>
      <stop offset="1" stop-color="#9fa3a6"/>
    </linearGradient>
  </defs>
</svg>