<svg xmlns="http://www.w3.org/2000/svg" viewBox="0 0 383.26 35.84">
  <title>cedia</title>
  <g id="Lockups">
    <g>
      <path d="M203.12,34.83V5.34L191.31,21a1.6,1.6,0,0,1-2.81,0L176.88,5.44V34.83a1.18,1.18,0,0,1-2.35,0V2a1.19,1.19,0,0,1,2.11-.75L189.91,19l13.4-17.72a1.27,1.27,0,0,1,1-.47A1.11,1.11,0,0,1,205.47,2V34.83a1.18,1.18,0,0,1-2.35,0Z" transform="translate(1.07 -0.29)" fill="#737577"/>
      <path d="M237.62,36H218.4a1.11,1.11,0,0,1-1.17-1.17V2A1.11,1.11,0,0,1,218.4.84h18.89a1.08,1.08,0,0,1,1.17,1.08,1.1,1.1,0,0,1-1.17,1.17H219.57v13.5h16.64a1.09,1.09,0,0,1,1.18,1.08,1.1,1.1,0,0,1-1.18,1.17H219.57V33.75h18.05a1.09,1.09,0,0,1,1.17,1.08A1.11,1.11,0,0,1,237.62,36Z" transform="translate(1.07 -0.29)" fill="#737577"/>
      <path d="M277.55,34.83V5.34L265.74,21a1.6,1.6,0,0,1-2.81,0L251.3,5.44V34.83a1.17,1.17,0,0,1-2.34,0V2a1.19,1.19,0,0,1,2.11-.75L264.34,19l13.4-17.72a1.26,1.26,0,0,1,1-.47A1.11,1.11,0,0,1,279.9,2V34.83a1.18,1.18,0,0,1-2.35,0Z" transform="translate(1.07 -0.29)" fill="#737577"/>
      <path d="M292.83,36a1.11,1.11,0,0,1-1.17-1.17V2A1.11,1.11,0,0,1,292.83.84h12c7.27,0,10.73,3.47,10.73,9.14,0,3.38-1.68,6.61-5.29,7.74,3.84,1.17,6.7,3.89,6.7,8.48,0,6.38-3.56,9.8-11.86,9.8ZM294,16.59h11.06c5.44,0,8.16-2.06,8.16-6.51s-2.76-7-8.34-7H294Zm11.16,17.16c6.56,0,9.47-2.53,9.47-7.55,0-4.22-2.21-7.36-9.57-7.36H294V33.75Z" transform="translate(1.07 -0.29)" fill="#737577"/>
      <path d="M346.26,36H327.05a1.11,1.11,0,0,1-1.18-1.17V2A1.11,1.11,0,0,1,327.05.84h18.89a1.09,1.09,0,0,1,1.17,1.08,1.11,1.11,0,0,1-1.17,1.17H328.22v13.5h16.64A1.09,1.09,0,0,1,346,17.67a1.1,1.1,0,0,1-1.17,1.17H328.22V33.75h18a1.09,1.09,0,0,1,1.18,1.08A1.11,1.11,0,0,1,346.26,36Z" transform="translate(1.07 -0.29)" fill="#737577"/>
      <path d="M380,35.62,370,21.84H360v13a1.18,1.18,0,0,1-2.35,0V2A1.11,1.11,0,0,1,358.78.84h6.93c1.5,0,3.28,0,3.75.05,8.16.33,11.49,4,11.49,10.41,0,5.72-2.53,9.14-8.3,10.22l9.28,12.75a1.08,1.08,0,0,1-.28,1.64A1.15,1.15,0,0,1,380,35.62ZM360,19.59h8.44c7.35,0,10.21-2.62,10.21-8.29,0-5.07-2.39-7.88-9.18-8.16-.43-.05-2.49-.05-3.66-.05H360Z" transform="translate(1.07 -0.29)" fill="#737577"/>
    </g>
  </g>
  <g id="_Logo_1" data-name="™ Logo 1">
    <text x="1.07" y="-0.29"></text>
    <g>
      <path d="M68.76,14.92V1.56A1.2,1.2,0,0,1,70,.36H80.43A17.83,17.83,0,0,1,97.88,14.69a1.2,1.2,0,0,1-.94,1.4l-.24,0a1.18,1.18,0,0,1-1.16-1A15.44,15.44,0,0,0,80.43,2.75H71.15V14.92a1.2,1.2,0,0,1-2.39,0m28.18,5.29a1.18,1.18,0,0,0-1.4.94A15.43,15.43,0,0,1,80.43,33.56H71.15V21.38a1.2,1.2,0,0,0-2.39,0V34.75A1.2,1.2,0,0,0,70,36H80.43A17.83,17.83,0,0,0,97.88,21.61a1.19,1.19,0,0,0-.94-1.4m-97-4.12.23,0a1.19,1.19,0,0,0,1.17-1,15.41,15.41,0,0,1,26-7.89,1.18,1.18,0,0,0,1.68,0,1.19,1.19,0,0,0,0-1.69A17.79,17.79,0,0,0-1,14.69a1.19,1.19,0,0,0,.94,1.4M29.13,28.88a1.2,1.2,0,0,0-1.69,0,15.25,15.25,0,0,1-11,4.66A15.43,15.43,0,0,1,1.29,21.15a1.19,1.19,0,0,0-1.4-.94A1.19,1.19,0,0,0-1,21.61,17.83,17.83,0,0,0,16.4,36a17.65,17.65,0,0,0,12.75-5.38,1.2,1.2,0,0,0,0-1.69M42.19,17a1.2,1.2,0,1,0,0,2.39H58.47a1.2,1.2,0,0,0,0-2.39Zm-4.12-.85a1.19,1.19,0,0,0,1.19-1.19V2.75H60.74a1.2,1.2,0,0,0,0-2.39H38.07a1.2,1.2,0,0,0-1.2,1.2V14.92a1.19,1.19,0,0,0,1.2,1.19M60.74,33.56H39.26V21.38a1.2,1.2,0,0,0-2.39,0V34.75a1.2,1.2,0,0,0,1.2,1.2H60.74a1.2,1.2,0,0,0,0-2.39m45.72-13.45a1.21,1.21,0,0,0-1.19,1.22v13.4a1.2,1.2,0,1,0,2.39,0V21.33a1.21,1.21,0,0,0-1.2-1.22m0-19.75a1.2,1.2,0,0,0-1.19,1.21V14.9a1.2,1.2,0,1,0,2.39,0V1.57a1.21,1.21,0,0,0-1.2-1.21m40,33.9L131.44,1.06a1.19,1.19,0,0,0-2.16,0L122.81,14.4a1.19,1.19,0,0,0,2.15,1l5.36-11.07,14,30.88a1.2,1.2,0,0,0,2.18-1M134.64,20.19H120.88l-.11,0-.11,0-.11,0-.1.05-.1.06-.08.08-.09.08-.07.08a.61.61,0,0,0-.07.1l0,0-6.77,13.4a1.16,1.16,0,0,0,.46,1.6,1.19,1.19,0,0,0,.58.15,1.18,1.18,0,0,0,1-.61l6.44-12.79h12.88a1.18,1.18,0,1,0,0-2.35" transform="translate(1.07 -0.29)" fill="#c15027"/>
      <path d="M142.19,2.19h0a1.88,1.88,0,1,1,3.75,0h0a1.89,1.89,0,0,1-1.88,1.89,1.87,1.87,0,0,1-1.87-1.88m3.53,0h0a1.66,1.66,0,1,0-3.32,0h0a1.66,1.66,0,1,0,3.32,0m-2.39-1h.86c.42,0,.73.2.73.6a.58.58,0,0,1-.44.59l.51.72h-.44l-.46-.66h-.39V3.1h-.37Zm.83,1c.25,0,.39-.13.39-.31s-.14-.32-.39-.32h-.46v.63Z" transform="translate(1.07 -0.29)" fill="#c15027"/>
    </g>
  </g>
</svg>
