<svg xmlns="http://www.w3.org/2000/svg" viewBox="0 0 729.38 176.1">
  <title>cedia</title>
  <g id="Layer_1" data-name="Layer 1">
    <path d="M344.94,72.23v-66A5.89,5.89,0,0,1,350.83.34h51.72a88,88,0,0,1,86.2,70.75A5.89,5.89,0,0,1,484.11,78a5.69,5.69,0,0,1-1.15.12,5.9,5.9,0,0,1-5.77-4.76,76.23,76.23,0,0,0-74.64-61.25H356.73V72.23a5.9,5.9,0,0,1-11.79,0M484.12,98.37a5.89,5.89,0,0,0-6.93,4.64,76.19,76.19,0,0,1-74.64,61.3H356.73V104.15a5.9,5.9,0,1,0-11.79,0v66.06a5.89,5.89,0,0,0,5.89,5.89h51.72a88,88,0,0,0,86.21-70.81,5.88,5.88,0,0,0-4.64-6.92M4.76,78a5.69,5.69,0,0,0,1.15.12,5.91,5.91,0,0,0,5.78-4.76,76.09,76.09,0,0,1,128.44-39,5.89,5.89,0,1,0,8.34-8.33A87.89,87.89,0,0,0,.12,71.09,5.89,5.89,0,0,0,4.76,78m144.42,63.18a5.9,5.9,0,0,0-8.34.11A76.09,76.09,0,0,1,11.68,103,5.9,5.9,0,0,0,.11,105.29a87.89,87.89,0,0,0,149.18,44.24,5.9,5.9,0,0,0-.11-8.34m64.5-58.87a5.9,5.9,0,0,0,0,11.79H294.1a5.9,5.9,0,1,0,0-11.79Zm-20.36-4.2a5.89,5.89,0,0,0,5.89-5.89V12.12H305.3a5.89,5.89,0,0,0,0-11.78h-112a5.88,5.88,0,0,0-5.89,5.89v66a5.89,5.89,0,0,0,5.89,5.89m112,86.19H199.21V104.15a5.89,5.89,0,1,0-11.78,0v66.06a5.89,5.89,0,0,0,5.89,5.89h112a5.9,5.9,0,0,0,0-11.79M531.15,97.88a6,6,0,0,0-5.89,6v66.2a5.9,5.9,0,1,0,11.79,0v-66.2a6,6,0,0,0-5.9-6m0-97.54a5.93,5.93,0,0,0-5.89,6V72.14a5.9,5.9,0,1,0,11.79,0V6.32a5.93,5.93,0,0,0-5.9-6m197.7,167.43L654.54,3.8a5.89,5.89,0,0,0-10.67-.14l-32,66a5.89,5.89,0,0,0,10.6,5.14L649,20.12l69.11,152.52a5.9,5.9,0,0,0,10.74-4.87m-58.5-69.52H603.24c-.09,0-.17,0-.25,0a4.34,4.34,0,0,0-.62.06l-.55.1-.53.16c-.19.07-.37.13-.55.21s-.32.17-.48.26a5.66,5.66,0,0,0-.48.31,5.2,5.2,0,0,0-.44.35l-.42.39-.35.43c-.13.16-.24.33-.36.5s-.09.13-.13.2l-33.47,66.19a5.76,5.76,0,0,0,2.3,7.9,6,6,0,0,0,2.85.73,5.87,5.87,0,0,0,5.16-3l31.79-63.18h63.64a5.82,5.82,0,1,0,0-11.63" fill="#c15027"/>
    <path d="M707.61,9.37v0a9.27,9.27,0,1,1,18.53-.05v.05a9.27,9.27,0,1,1-18.53,0Zm17.47,0V9.27a8.2,8.2,0,1,0-16.4.05v0a8.14,8.14,0,0,0,8.2,8.25A8.23,8.23,0,0,0,725.08,9.32Zm-11.82-4.9h4.25c2.08,0,3.63,1,3.63,3A2.85,2.85,0,0,1,719,10.28l2.5,3.56h-2.18L717,10.6h-2v3.24h-1.81Zm4.1,4.69c1.22,0,1.91-.64,1.91-1.55S718.58,6,717.36,6h-2.29V9.11Z" fill="#c15027"/>
  </g>
</svg>
