<svg viewBox="0 0 190 159" xmlns="http://www.w3.org/2000/svg" fill-rule="evenodd" clip-rule="evenodd" stroke-linejoin="round" stroke-miterlimit="1.41">
  <g fill-rule="nonzero">
    <path d="M179 .5c-6.66 1.1-42.04 6.53-83.92 6.53S17.82 1.59 11.16.5a4.26 4.26 0 0 0-4.95 4.2v33.83a2.77 2.77 0 0 0 5.55 0V6.22a559.5 559.5 0 0 0 83.32 6.35c39.31 0 72.12-4.58 83.32-6.35v32.3a2.77 2.77 0 1 0 5.54 0V4.7A4.24 4.24 0 0 0 179 .5z" fill="url(#cinema-1)"/>
    <path d="M178.4 51.44v32.29c-11.2-1.78-44-6.36-83.32-6.36-39.3 0-72.12 4.58-83.31 6.36v-32.3a2.78 2.78 0 0 0-5.55 0v33.8a4.23 4.23 0 0 0 4.94 4.2c6.67-1.08 42.04-6.52 83.92-6.52s77.26 5.44 83.92 6.53a4.24 4.24 0 0 0 4.95-4.2v-33.8a2.78 2.78 0 0 0-5.55 0z" fill="url(#cinema-2)"/>
    <path d="M166.84 13.47a572.87 572.87 0 0 1-71.76 4.66c-29.43 0-55.27-2.54-71.76-4.66a5.33 5.33 0 0 0-6.01 5.28v52.44a5.32 5.32 0 0 0 6 5.29 572.2 572.2 0 0 1 71.77-4.66 572.1 572.1 0 0 1 71.76 4.66 5.33 5.33 0 0 0 6.01-5.29V18.75a5.3 5.3 0 0 0-6-5.28zm.46 5.53v51.95a577.92 577.92 0 0 0-72.22-4.68c-29.58 0-55.55 2.53-72.23 4.68V19a578.9 578.9 0 0 0 72.23 4.67A578.9 578.9 0 0 0 167.3 19z" fill="url(#cinema-3)"/>
    <path d="M138.05 96.86c-3.71 0-7.03 1.7-9.24 4.35a12 12 0 0 0-9.24-4.35h-15.21a12 12 0 0 0-9.24 4.35 12 12 0 0 0-9.24-4.35h-15.2a12 12 0 0 0-9.25 4.35 12 12 0 0 0-9.24-4.35H37c-6.63 0-12.02 5.4-12.02 12.02v7.72h-4.91a12.02 12.02 0 0 0-12.01 12v14.3H4.02a3.47 3.47 0 0 0-3.47 3.46v8.26c0 1.9 1.56 3.46 3.47 3.46h182.12c1.91 0 3.46-1.55 3.46-3.46v-8.26a3.47 3.47 0 0 0-3.46-3.47h-4.1V128.6c0-6.62-5.39-12-12.02-12h-4.75v-7.72c0-6.63-5.4-12.02-12.01-12.02h-15.21zm-6.46 12.02c0-3.57 2.89-6.47 6.46-6.47h15.2c3.57 0 6.48 2.9 6.48 6.47v7.72h-5.58l-2.07.31c-.2.04-.4.1-.58.15l-.03.01a12.04 12.04 0 0 0-5.9 3.87 12.06 12.06 0 0 0-5.9-3.87l-1.22-.28-.14-.03-1.32-.15-.66-.01h-4.74v-7.72zm-33.7 0c0-3.57 2.9-6.47 6.47-6.47h15.2c3.57 0 6.48 2.9 6.48 6.47v7.72h-5.57l-1.32.16-.15.03-1.18.27-.04.01a12 12 0 0 0-5.9 3.87 12.06 12.06 0 0 0-5.9-3.87l-1.2-.28-.16-.03-1.32-.15-.65-.01h-4.76v-7.72zm-33.69 0c0-3.57 2.9-6.47 6.47-6.47h15.2c3.58 0 6.48 2.9 6.48 6.47v7.72h-4.91a17.2 17.2 0 0 0-1.27.06l-.49.07h-.1a11.9 11.9 0 0 0-7.34 4.12 11.96 11.96 0 0 0-9.2-4.25H64.2v-7.72zm-33.68 0c0-3.57 2.9-6.47 6.46-6.47H52.2c3.57 0 6.47 2.9 6.47 6.47v7.72h-4.91a17.18 17.18 0 0 0-1.26.06l-.49.07h-.1a11.92 11.92 0 0 0-7.35 4.12 11.94 11.94 0 0 0-9.2-4.25h-4.83v-7.72zm117.83 19.72l.25-1.76.75-1.67 1.14-1.35 1.49-1.02 1.57-.53 1.26-.13h15.21c3.57 0 6.47 2.9 6.47 6.46v14.3h-28.14v-14.3zm-33.69 0l.25-1.76.74-1.67 1.15-1.35 1.5-1.02 1.57-.53 1.25-.13h15.21c.22 0 .43.01.64.03l1.22.25.4.14.18.06 1.55.9 1.26 1.33.77 1.4.08.23.12.36.06.24.08.37.04.24.07.91v14.3h-28.14v-14.3zm-33.7 0l.04-.57a6.51 6.51 0 0 1 5.2-5.77l1.24-.12h15.2c.22 0 .44.01.65.03l1.21.25 1.13.45 1.47 1.05.3.31.11.14 1 1.54.15.34.09.23.33 1.6.03.52v14.3H80.97v-14.3zm-33.68 0l.03-.57a6.51 6.51 0 0 1 5.21-5.77l1.23-.12h15.2c3.57 0 6.47 2.9 6.47 6.46v14.3H47.28v-14.3zm-33.69 0c0-3.56 2.9-6.46 6.47-6.46h15.2c3.57 0 6.47 2.9 6.47 6.46v14.3H13.6v-14.3zM6.1 148.44h177.96v4.1H6.1v-4.1z" fill="url(#cinema-4)"/>
  </g>
  <defs>
    <linearGradient id="cinema-1" x2="1" gradientUnits="userSpaceOnUse" gradientTransform="translate(6.21 20.88) scale(177.732)">
      <stop offset="0" stop-color="#30353a"/>
      <stop offset="1" stop-color="#9fa3a6"/>
    </linearGradient>
    <linearGradient id="cinema-2" x2="1" gradientUnits="userSpaceOnUse" gradientTransform="translate(6.22 69.08) scale(177.731)">
      <stop offset="0" stop-color="#30353a"/>
      <stop offset="1" stop-color="#9fa3a6"/>
    </linearGradient>
    <linearGradient id="cinema-3" x2="1" gradientUnits="userSpaceOnUse" gradientTransform="translate(17.3 44.97) scale(155.544)">
      <stop offset="0" stop-color="#30353a"/>
      <stop offset="1" stop-color="#9fa3a6"/>
    </linearGradient>
    <linearGradient id="cinema-4" x2="1" gradientUnits="userSpaceOnUse" gradientTransform="translate(.56 127.47) scale(189.05)">
      <stop offset="0" stop-color="#30353a"/>
      <stop offset="1" stop-color="#9fa3a6"/>
    </linearGradient>
  </defs>
</svg>