<svg viewBox="0 0 177 176" xmlns="http://www.w3.org/2000/svg" fill-rule="evenodd" clip-rule="evenodd" stroke-linejoin="round" stroke-miterlimit="1.41">
  <path d="M54.37 41.96c-9.17 4.38-18.43 10.46-27.5 18.1C11.46 73 2 85.77 1.61 86.3l-1.2 1.63 1.2 1.64c.39.54 9.84 13.3 25.24 26.24 9.08 7.64 18.34 13.73 27.5 18.1 11.59 5.53 23.08 8.33 34.16 8.33 11.08 0 22.57-2.8 34.15-8.32 9.17-4.38 18.43-10.47 27.5-18.1 15.4-12.95 24.86-25.71 25.26-26.25l1.2-1.64-1.2-1.63c-.4-.54-9.86-13.3-25.26-26.25-9.07-7.64-18.33-13.72-27.5-18.1-11.58-5.52-23.07-8.32-34.15-8.32-11.08 0-22.57 2.8-34.15 8.32zm-23.86 69.72A173.64 173.64 0 0 1 8.86 89.84c-.9-1.1-.9-2.69 0-3.79A173.63 173.63 0 0 1 30.5 64.2c13.6-11.42 34.72-25.04 58-25.04 23.29 0 44.4 13.62 58.01 25.04a173.23 173.23 0 0 1 21.65 21.85c.91 1.1.91 2.69 0 3.79a173.24 173.24 0 0 1-21.65 21.84c-13.6 11.43-34.72 25.04-58 25.04-23.3 0-44.4-13.61-58-25.04z" fill="url(#design-planning-1)" fill-rule="nonzero"/>
  <path d="M48.94 87.94a39.63 39.63 0 0 0 39.58 39.58 39.63 39.63 0 0 0 39.58-39.58 39.63 39.63 0 0 0-39.58-39.58 39.63 39.63 0 0 0-39.58 39.58zm5.52 0a34.1 34.1 0 0 1 34.06-34.06 34.1 34.1 0 0 1 34.05 34.06A34.1 34.1 0 0 1 88.52 122a34.1 34.1 0 0 1-34.06-34.06z" fill="url(#design-planning-2)" fill-rule="nonzero"/>
  <path d="M71.03 87.94a17.5 17.5 0 0 0 17.49 17.5A17.5 17.5 0 0 0 106 87.93a17.5 17.5 0 0 0-17.48-17.49 17.5 17.5 0 0 0-17.5 17.5zm5.52 0a11.98 11.98 0 1 1 11.96 11.97c-6.59 0-11.96-5.37-11.96-11.97z" fill="url(#design-planning-3)" fill-rule="nonzero"/>
  <path d="M62.42 99.6a2.62 2.62 0 0 0-1.2 3.67l.41.7a2.62 2.62 0 0 0 3.8.79l6.7-4.9a20.12 20.12 0 0 1-2.1-3.66l-7.6 3.4z" fill="url(#design-planning-4)" fill-rule="nonzero"/>
  <path d="M74.25 112.7a2.62 2.62 0 0 0 1.18 3.68l.74.33a2.61 2.61 0 0 0 3.53-1.59l2.57-7.91c-1.34-.43-2.64-1.01-3.87-1.72l-4.15 7.2z" fill="url(#design-planning-5)" fill-rule="nonzero"/>
  <path d="M82.36 57.25l-.79.17c-1.5.34-2.4 1.9-1.92 3.36l2.58 7.91a20.1 20.1 0 0 1 4.13-.89l-.87-8.26a2.62 2.62 0 0 0-3.13-2.29z" fill="url(#design-planning-6)" fill-rule="nonzero"/>
  <path d="M97.3 60.75l-2.56 7.92c1.35.43 2.64 1 3.87 1.7l4.15-7.2a2.62 2.62 0 0 0-1.19-3.67l-.74-.34a2.62 2.62 0 0 0-3.53 1.6z" fill="url(#design-planning-7)" fill-rule="nonzero"/>
  <path d="M65.5 66.74l-.54.6a2.62 2.62 0 0 0 .42 3.84l6.74 4.89c.83-1.15 1.78-2.2 2.83-3.16l-5.58-6.17a2.58 2.58 0 0 0-1.93-.86c-.7 0-1.42.3-1.94.86z" fill="url(#design-planning-8)" fill-rule="nonzero"/>
  <path d="M90.65 108.08l.86 8.27a2.62 2.62 0 0 0 3.13 2.29l.79-.17c1.5-.34 2.4-1.9 1.93-3.36l-2.57-7.9a19.9 19.9 0 0 1-4.14.87z" fill="url(#design-planning-9)" fill-rule="nonzero"/>
  <path d="M111.6 71.1l-6.72 4.91a20.15 20.15 0 0 1 2.12 3.66l7.6-3.4a2.62 2.62 0 0 0 1.2-3.68l-.42-.7a2.64 2.64 0 0 0-3.78-.79z" fill="url(#design-planning-10)" fill-rule="nonzero"/>
  <path d="M102.07 103l5.57 6.17a2.62 2.62 0 0 0 3.86 0l.55-.6a2.62 2.62 0 0 0-.42-3.84l-6.73-4.9a20.53 20.53 0 0 1-2.83 3.16z" fill="url(#design-planning-11)" fill-rule="nonzero"/>
  <path d="M57.77 84.35l-.08.8a2.62 2.62 0 0 0 2.58 2.88l8.32.04c0-1.42.16-2.84.46-4.22l-8.13-1.75a2.63 2.63 0 0 0-3.15 2.25z" fill="url(#design-planning-12)" fill-rule="nonzero"/>
  <path d="M108.63 92.42l8.13 1.76c1.5.33 2.96-.72 3.14-2.25l.1-.8a2.62 2.62 0 0 0-2.59-2.88l-8.31-.04c-.01 1.41-.17 2.83-.47 4.21z" fill="url(#design-planning-13)" fill-rule="nonzero"/>
  <path d="M99.57 150.53a2.76 2.76 0 0 0-.36 3.9l16.64 19.96c.52.63 1.3 1 2.12 1h52.47a2.76 2.76 0 0 0 0-5.53h-49.89c-.81 0-1.6-.36-2.12-1l-14.98-17.97a2.75 2.75 0 0 0-3.88-.36z" fill="url(#design-planning-14)" fill-rule="nonzero"/>
  <path d="M6.6.5a2.76 2.76 0 1 0 0 5.53h42.51c.82 0 1.6.36 2.12 1L66.22 25a2.77 2.77 0 0 0 4.24-3.53L53.82 1.5c-.52-.63-1.3-1-2.12-1H6.6z" fill="url(#design-planning-15)" fill-rule="nonzero"/>
  <path d="M6.6 25.35a2.77 2.77 0 1 0 0 5.52h16.57a2.76 2.76 0 0 0 0-5.52H6.6z" fill="url(#design-planning-16)" fill-rule="nonzero"/>
  <path d="M6.6 36.4a2.76 2.76 0 1 0 0 5.52h16.57a2.76 2.76 0 0 0 0-5.52H6.6z" fill="url(#design-planning-17)" fill-rule="nonzero"/>
  <path d="M6.6 14.3a2.77 2.77 0 1 0 0 5.53h16.57a2.76 2.76 0 0 0 0-5.52H6.6z" fill="url(#design-planning-18)" fill-rule="nonzero"/>
  <path d="M6.6 47.45a2.76 2.76 0 1 0 0 5.52h16.57a2.76 2.76 0 0 0 0-5.52H6.6z" fill="url(#design-planning-19)" fill-rule="nonzero"/>
  <path d="M143.74 157.9a2.76 2.76 0 1 0 5.53 0 2.76 2.76 0 0 0-5.53 0z" fill="url(#design-planning-20)"/>
  <path d="M154.79 157.9a2.76 2.76 0 1 0 5.53 0 2.76 2.76 0 0 0-5.53 0z" fill="url(#design-planning-21)"/>
  <path d="M165.83 157.9a2.76 2.76 0 1 0 5.53 0 2.76 2.76 0 0 0-5.53 0z" fill="url(#design-planning-22)"/>
  <path d="M139.14 85.18a2.76 2.76 0 0 0 0 5.52h16.57a2.76 2.76 0 1 0 0-5.52h-16.57z" fill="url(#design-planning-23)" fill-rule="nonzero"/>
  <path d="M21.32 85.18a2.76 2.76 0 0 0 0 5.52H37.9a2.76 2.76 0 1 0 0-5.52H21.32z" fill="url(#design-planning-24)" fill-rule="nonzero"/>
  <path d="M85.76 87.94a2.76 2.76 0 1 0 5.52 0 2.76 2.76 0 0 0-5.52 0z" fill="url(#design-planning-25)"/>
  <path d="M145.59 3.27a2.76 2.76 0 1 0 5.52 0 2.76 2.76 0 0 0-5.52 0z" fill="url(#design-planning-26)"/>
  <path d="M156.63 3.27a2.77 2.77 0 1 0 5.53 0 2.77 2.77 0 0 0-5.53 0z" fill="url(#design-planning-27)"/>
  <path d="M167.68 3.27a2.76 2.76 0 1 0 5.52 0 2.76 2.76 0 0 0-5.52 0z" fill="url(#design-planning-28)"/>
  <path d="M145.59 14.3a2.76 2.76 0 1 0 5.52.01 2.76 2.76 0 0 0-5.52 0z" fill="url(#design-planning-29)"/>
  <path d="M167.68 14.3a2.76 2.76 0 1 0 5.52 0 2.76 2.76 0 0 0-5.52 0z" fill="url(#design-planning-30)"/>
  <path d="M156.63 14.3a2.76 2.76 0 1 0 5.53 0 2.76 2.76 0 0 0-5.53 0z" fill="url(#design-planning-31)"/>
  <path d="M134.54 14.3a2.76 2.76 0 1 0 5.53 0 2.76 2.76 0 0 0-5.53 0z" fill="url(#design-planning-32)"/>
  <path d="M167.68 25.35a2.76 2.76 0 1 0 5.52 0 2.76 2.76 0 0 0-5.52 0z" fill="url(#design-planning-33)"/>
  <path d="M134.54 25.35a2.76 2.76 0 1 0 5.53 0 2.76 2.76 0 0 0-5.53 0z" fill="url(#design-planning-34)"/>
  <path d="M123.5 25.35a2.76 2.76 0 1 0 5.52 0 2.76 2.76 0 0 0-5.52 0z" fill="url(#design-planning-35)"/>
  <path d="M156.63 25.35a2.76 2.76 0 1 0 5.53 0 2.76 2.76 0 0 0-5.53 0z" fill="url(#design-planning-36)"/>
  <path d="M145.59 25.35a2.76 2.76 0 1 0 5.52 0 2.76 2.76 0 0 0-5.52 0z" fill="url(#design-planning-37)"/>
  <path d="M13.96 149.61v4.6a2.76 2.76 0 0 1-2.76 2.76H6.6a2.76 2.76 0 1 0 0 5.53h4.6a2.76 2.76 0 0 1 2.76 2.76v4.6a2.76 2.76 0 1 0 5.52 0v-4.6a2.76 2.76 0 0 1 2.77-2.76h4.6a2.76 2.76 0 0 0 0-5.53h-4.6a2.76 2.76 0 0 1-2.77-2.75v-4.6a2.76 2.76 0 1 0-5.52 0z" fill="url(#design-planning-38)" fill-rule="nonzero"/>
  <path d="M36.05 147.77a2.76 2.76 0 0 0 0 5.52H56.3a2.76 2.76 0 1 0 0-5.52H36.05z" fill="url(#design-planning-39)" fill-rule="nonzero"/>
  <defs>
    <linearGradient id="design-planning-1" x2="1" gradientUnits="userSpaceOnUse" gradientTransform="translate(.41 87.94) scale(176.215)">
      <stop offset="0" stop-color="#30353a"/>
      <stop offset="1" stop-color="#9fa3a6"/>
    </linearGradient>
    <linearGradient id="design-planning-2" x2="1" gradientUnits="userSpaceOnUse" gradientTransform="translate(48.94 87.94) scale(79.1572)">
      <stop offset="0" stop-color="#30353a"/>
      <stop offset="1" stop-color="#9fa3a6"/>
    </linearGradient>
    <linearGradient id="design-planning-3" x2="1" gradientUnits="userSpaceOnUse" gradientTransform="translate(71.03 87.94) scale(34.9764)">
      <stop offset="0" stop-color="#30353a"/>
      <stop offset="1" stop-color="#9fa3a6"/>
    </linearGradient>
    <linearGradient id="design-planning-4" x2="1" gradientUnits="userSpaceOnUse" gradientTransform="translate(60.89 100.72) scale(11.2531)">
      <stop offset="0" stop-color="#30353a"/>
      <stop offset="1" stop-color="#9fa3a6"/>
    </linearGradient>
    <linearGradient id="design-planning-5" x2="1" gradientUnits="userSpaceOnUse" gradientTransform="translate(73.9 111.2) scale(8.36949)">
      <stop offset="0" stop-color="#30353a"/>
      <stop offset="1" stop-color="#9fa3a6"/>
    </linearGradient>
    <linearGradient id="design-planning-6" x2="1" gradientUnits="userSpaceOnUse" gradientTransform="translate(79.52 62.95) scale(6.84206)">
      <stop offset="0" stop-color="#30353a"/>
      <stop offset="1" stop-color="#9fa3a6"/>
    </linearGradient>
    <linearGradient id="design-planning-7" x2="1" gradientUnits="userSpaceOnUse" gradientTransform="translate(94.74 64.67) scale(8.3623)">
      <stop offset="0" stop-color="#30353a"/>
      <stop offset="1" stop-color="#9fa3a6"/>
    </linearGradient>
    <linearGradient id="design-planning-8" x2="1" gradientUnits="userSpaceOnUse" gradientTransform="translate(64.31 70.98) scale(10.6356)">
      <stop offset="0" stop-color="#30353a"/>
      <stop offset="1" stop-color="#9fa3a6"/>
    </linearGradient>
    <linearGradient id="design-planning-9" x2="1" gradientUnits="userSpaceOnUse" gradientTransform="translate(90.65 112.95) scale(6.83372)">
      <stop offset="0" stop-color="#30353a"/>
      <stop offset="1" stop-color="#9fa3a6"/>
    </linearGradient>
    <linearGradient id="design-planning-10" x2="1" gradientUnits="userSpaceOnUse" gradientTransform="translate(104.88 75.14) scale(11.2513)">
      <stop offset="0" stop-color="#30353a"/>
      <stop offset="1" stop-color="#9fa3a6"/>
    </linearGradient>
    <linearGradient id="design-planning-11" x2="1" gradientUnits="userSpaceOnUse" gradientTransform="translate(102.07 104.93) scale(10.6316)">
      <stop offset="0" stop-color="#30353a"/>
      <stop offset="1" stop-color="#9fa3a6"/>
    </linearGradient>
    <linearGradient id="design-planning-12" x2="1" gradientUnits="userSpaceOnUse" gradientTransform="translate(57.68 85.05) scale(11.3724)">
      <stop offset="0" stop-color="#30353a"/>
      <stop offset="1" stop-color="#9fa3a6"/>
    </linearGradient>
    <linearGradient id="design-planning-13" x2="1" gradientUnits="userSpaceOnUse" gradientTransform="translate(108.63 91.23) scale(11.3739)">
      <stop offset="0" stop-color="#30353a"/>
      <stop offset="1" stop-color="#9fa3a6"/>
    </linearGradient>
    <linearGradient id="design-planning-14" x2="1" gradientUnits="userSpaceOnUse" gradientTransform="translate(98.57 162.64) scale(74.6284)">
      <stop offset="0" stop-color="#30353a"/>
      <stop offset="1" stop-color="#9fa3a6"/>
    </linearGradient>
    <linearGradient id="design-planning-15" x2="1" gradientUnits="userSpaceOnUse" gradientTransform="translate(3.84 13.25) scale(67.2646)">
      <stop offset="0" stop-color="#30353a"/>
      <stop offset="1" stop-color="#9fa3a6"/>
    </linearGradient>
    <linearGradient id="design-planning-16" x2="1" gradientUnits="userSpaceOnUse" gradientTransform="translate(3.84 28.12) scale(22.0904)">
      <stop offset="0" stop-color="#30353a"/>
      <stop offset="1" stop-color="#9fa3a6"/>
    </linearGradient>
    <linearGradient id="design-planning-17" x2="1" gradientUnits="userSpaceOnUse" gradientTransform="translate(3.84 39.16) scale(22.0904)">
      <stop offset="0" stop-color="#30353a"/>
      <stop offset="1" stop-color="#9fa3a6"/>
    </linearGradient>
    <linearGradient id="design-planning-18" x2="1" gradientUnits="userSpaceOnUse" gradientTransform="translate(3.84 17.07) scale(22.0904)">
      <stop offset="0" stop-color="#30353a"/>
      <stop offset="1" stop-color="#9fa3a6"/>
    </linearGradient>
    <linearGradient id="design-planning-19" x2="1" gradientUnits="userSpaceOnUse" gradientTransform="translate(3.84 50.2) scale(22.0904)">
      <stop offset="0" stop-color="#30353a"/>
      <stop offset="1" stop-color="#9fa3a6"/>
    </linearGradient>
    <linearGradient id="design-planning-20" x2="1" gradientUnits="userSpaceOnUse" gradientTransform="translate(143.74 157.9) scale(5.52259)">
      <stop offset="0" stop-color="#30353a"/>
      <stop offset="1" stop-color="#9fa3a6"/>
    </linearGradient>
    <linearGradient id="design-planning-21" x2="1" gradientUnits="userSpaceOnUse" gradientTransform="translate(154.79 157.9) scale(5.52259)">
      <stop offset="0" stop-color="#30353a"/>
      <stop offset="1" stop-color="#9fa3a6"/>
    </linearGradient>
    <linearGradient id="design-planning-22" x2="1" gradientUnits="userSpaceOnUse" gradientTransform="translate(165.83 157.9) scale(5.52259)">
      <stop offset="0" stop-color="#30353a"/>
      <stop offset="1" stop-color="#9fa3a6"/>
    </linearGradient>
    <linearGradient id="design-planning-23" x2="1" gradientUnits="userSpaceOnUse" gradientTransform="translate(136.38 87.94) scale(22.0904)">
      <stop offset="0" stop-color="#30353a"/>
      <stop offset="1" stop-color="#9fa3a6"/>
    </linearGradient>
    <linearGradient id="design-planning-24" x2="1" gradientUnits="userSpaceOnUse" gradientTransform="translate(18.56 87.94) scale(22.0904)">
      <stop offset="0" stop-color="#30353a"/>
      <stop offset="1" stop-color="#9fa3a6"/>
    </linearGradient>
    <linearGradient id="design-planning-25" x2="1" gradientUnits="userSpaceOnUse" gradientTransform="translate(85.76 87.94) scale(5.52259)">
      <stop offset="0" stop-color="#30353a"/>
      <stop offset="1" stop-color="#9fa3a6"/>
    </linearGradient>
    <linearGradient id="design-planning-26" x2="1" gradientUnits="userSpaceOnUse" gradientTransform="translate(145.58 3.26) scale(5.52259)">
      <stop offset="0" stop-color="#30353a"/>
      <stop offset="1" stop-color="#9fa3a6"/>
    </linearGradient>
    <linearGradient id="design-planning-27" x2="1" gradientUnits="userSpaceOnUse" gradientTransform="translate(156.63 3.26) scale(5.52259)">
      <stop offset="0" stop-color="#30353a"/>
      <stop offset="1" stop-color="#9fa3a6"/>
    </linearGradient>
    <linearGradient id="design-planning-28" x2="1" gradientUnits="userSpaceOnUse" gradientTransform="translate(167.67 3.26) scale(5.52259)">
      <stop offset="0" stop-color="#30353a"/>
      <stop offset="1" stop-color="#9fa3a6"/>
    </linearGradient>
    <linearGradient id="design-planning-29" x2="1" gradientUnits="userSpaceOnUse" gradientTransform="translate(145.58 14.3) scale(5.52259)">
      <stop offset="0" stop-color="#30353a"/>
      <stop offset="1" stop-color="#9fa3a6"/>
    </linearGradient>
    <linearGradient id="design-planning-30" x2="1" gradientUnits="userSpaceOnUse" gradientTransform="translate(167.67 14.3) scale(5.52259)">
      <stop offset="0" stop-color="#30353a"/>
      <stop offset="1" stop-color="#9fa3a6"/>
    </linearGradient>
    <linearGradient id="design-planning-31" x2="1" gradientUnits="userSpaceOnUse" gradientTransform="translate(156.63 14.3) scale(5.52259)">
      <stop offset="0" stop-color="#30353a"/>
      <stop offset="1" stop-color="#9fa3a6"/>
    </linearGradient>
    <linearGradient id="design-planning-32" x2="1" gradientUnits="userSpaceOnUse" gradientTransform="translate(134.54 14.3) scale(5.52259)">
      <stop offset="0" stop-color="#30353a"/>
      <stop offset="1" stop-color="#9fa3a6"/>
    </linearGradient>
    <linearGradient id="design-planning-33" x2="1" gradientUnits="userSpaceOnUse" gradientTransform="translate(167.67 25.35) scale(5.52259)">
      <stop offset="0" stop-color="#30353a"/>
      <stop offset="1" stop-color="#9fa3a6"/>
    </linearGradient>
    <linearGradient id="design-planning-34" x2="1" gradientUnits="userSpaceOnUse" gradientTransform="translate(134.54 25.35) scale(5.52259)">
      <stop offset="0" stop-color="#30353a"/>
      <stop offset="1" stop-color="#9fa3a6"/>
    </linearGradient>
    <linearGradient id="design-planning-35" x2="1" gradientUnits="userSpaceOnUse" gradientTransform="translate(123.5 25.35) scale(5.52259)">
      <stop offset="0" stop-color="#30353a"/>
      <stop offset="1" stop-color="#9fa3a6"/>
    </linearGradient>
    <linearGradient id="design-planning-36" x2="1" gradientUnits="userSpaceOnUse" gradientTransform="translate(156.63 25.35) scale(5.52259)">
      <stop offset="0" stop-color="#30353a"/>
      <stop offset="1" stop-color="#9fa3a6"/>
    </linearGradient>
    <linearGradient id="design-planning-37" x2="1" gradientUnits="userSpaceOnUse" gradientTransform="translate(145.58 25.35) scale(5.52259)">
      <stop offset="0" stop-color="#30353a"/>
      <stop offset="1" stop-color="#9fa3a6"/>
    </linearGradient>
    <linearGradient id="design-planning-38" x2="1" gradientUnits="userSpaceOnUse" gradientTransform="translate(3.84 159.74) scale(25.7721)">
      <stop offset="0" stop-color="#30353a"/>
      <stop offset="1" stop-color="#9fa3a6"/>
    </linearGradient>
    <linearGradient id="design-planning-39" x2="1" gradientUnits="userSpaceOnUse" gradientTransform="translate(33.3 150.53) scale(25.7721)">
      <stop offset="0" stop-color="#30353a"/>
      <stop offset="1" stop-color="#9fa3a6"/>
    </linearGradient>
  </defs>
</svg>