<svg viewBox="0 0 190 171" xmlns="http://www.w3.org/2000/svg" fill-rule="evenodd" clip-rule="evenodd" stroke-linejoin="round" stroke-miterlimit="1.41">
  <g fill-rule="nonzero">
    <path d="M35.77 113.22a2.7 2.7 0 0 0 0 5.39h139.77c4.97 0 9 4.04 9 9v28.02c0 4.96-4.03 9-9 9H13.16a7.22 7.22 0 0 1-7.21-7.22v-31.59a7.22 7.22 0 0 1 7.2-7.21h9.67a2.7 2.7 0 1 0 0-5.4h-9.66c-6.95 0-12.6 5.66-12.6 12.61v31.6c0 6.94 5.65 12.6 12.6 12.6h162.38c7.93 0 14.4-6.46 14.4-14.4v-28c0-7.95-6.47-14.4-14.4-14.4H35.77z" fill="url(#device-1)"/>
    <path d="M21.54 141.62a14.55 14.55 0 1 0 14.54-14.54 14.56 14.56 0 0 0-14.54 14.54zm5.39 0a9.15 9.15 0 1 1 18.29.01 9.15 9.15 0 0 1-18.3-.01z" fill="url(#device-2)"/>
    <path d="M75.33 130.67a7.16 7.16 0 0 0-7.16 7.16v7.58a7.16 7.16 0 0 0 7.16 7.16h86.47c3.94 0 7.15-3.2 7.15-7.16v-7.59a7.16 7.16 0 0 0-7.15-7.15H75.33zm-1.76 14.74v-7.59c0-.97.8-1.76 1.76-1.76h86.47c.97 0 1.76.79 1.76 1.76v7.6c0 .97-.79 1.76-1.76 1.76H75.33c-.97 0-1.76-.8-1.76-1.77z" fill="url(#device-3)"/>
    <path d="M42.28 55.9a11.28 11.28 0 0 0 7.96 19.23c3.01 0 5.84-1.17 7.97-3.3A52.05 52.05 0 0 1 95.24 56.5c14 0 27.15 5.45 37.04 15.34a11.21 11.21 0 0 0 7.97 3.3 11.28 11.28 0 0 0 7.97-19.23 74.44 74.44 0 0 0-52.98-21.93c-20 0-38.81 7.79-52.96 21.93zm3.81 12.13a5.88 5.88 0 0 1 0-8.31 69.05 69.05 0 0 1 49.15-20.37 69.06 69.06 0 0 1 49.16 20.37 5.88 5.88 0 0 1-8.3 8.3A57.4 57.4 0 0 0 95.23 51.1 57.4 57.4 0 0 0 54.4 68.02a5.84 5.84 0 0 1-8.3 0z" fill="url(#device-4)"/>
    <path d="M21.2 30.67A11.27 11.27 0 0 0 37.15 46.6a81.64 81.64 0 0 1 58.1-24.07c21.96 0 42.6 8.55 58.11 24.07a11.2 11.2 0 0 0 7.97 3.3 11.28 11.28 0 0 0 7.97-19.23 104.6 104.6 0 0 0-29.7-20.87 2.7 2.7 0 0 0-2.28 4.88 99.23 99.23 0 0 1 28.16 19.8 5.89 5.89 0 0 1-4.15 10.03 5.83 5.83 0 0 1-4.15-1.72 87.02 87.02 0 0 0-61.93-25.65 87 87 0 0 0-61.91 25.65 5.89 5.89 0 0 1-8.3-8.3 98.67 98.67 0 0 1 70.21-29.1 99.6 99.6 0 0 1 30.45 4.73A2.7 2.7 0 0 0 127.33 5 104.94 104.94 0 0 0 95.24 0a104 104 0 0 0-74.03 30.67z" fill="url(#device-5)"/>
    <path d="M62.24 81.07a11.2 11.2 0 0 0-3.3 7.96c0 3.01 1.17 5.84 3.3 7.97a11.21 11.21 0 0 0 7.96 3.3 11.2 11.2 0 0 0 7.97-3.3 23.95 23.95 0 0 1 17.07-7.06c6.46 0 12.53 2.5 17.08 7.06a11.2 11.2 0 0 0 7.97 3.3 11.28 11.28 0 0 0 7.96-19.23 46.35 46.35 0 0 0-33-13.65 46.36 46.36 0 0 0-33.01 13.65zm3.81 12.12a5.89 5.89 0 0 1 0-8.31 41.02 41.02 0 0 1 29.2-12.07 41.02 41.02 0 0 1 29.2 12.07 5.89 5.89 0 0 1-4.16 10.03 5.84 5.84 0 0 1-4.16-1.72 29.34 29.34 0 0 0-20.89-8.64c-7.9 0-15.31 3.06-20.88 8.64a5.86 5.86 0 0 1-8.31 0z" fill="url(#device-6)"/>
  </g>
  <defs>
    <linearGradient id="device-1" x2="1" gradientUnits="userSpaceOnUse" gradientTransform="translate(.55 141.62) scale(189.382)">
      <stop offset="0" stop-color="#30353a"/>
      <stop offset="1" stop-color="#9fa3a6"/>
    </linearGradient>
    <linearGradient id="device-2" x2="1" gradientUnits="userSpaceOnUse" gradientTransform="translate(21.54 141.62) scale(29.078)">
      <stop offset="0" stop-color="#30353a"/>
      <stop offset="1" stop-color="#9fa3a6"/>
    </linearGradient>
    <linearGradient id="device-3" x2="1" gradientUnits="userSpaceOnUse" gradientTransform="translate(68.18 141.62) scale(100.777)">
      <stop offset="0" stop-color="#30353a"/>
      <stop offset="1" stop-color="#9fa3a6"/>
    </linearGradient>
    <linearGradient id="device-4" x2="1" gradientUnits="userSpaceOnUse" gradientTransform="translate(38.99 54.55) scale(112.519)">
      <stop offset="0" stop-color="#30353a"/>
      <stop offset="1" stop-color="#9fa3a6"/>
    </linearGradient>
    <linearGradient id="device-5" x2="1" gradientUnits="userSpaceOnUse" gradientTransform="translate(17.91 24.95) scale(154.664)">
      <stop offset="0" stop-color="#30353a"/>
      <stop offset="1" stop-color="#9fa3a6"/>
    </linearGradient>
    <linearGradient id="device-6" x2="1" gradientUnits="userSpaceOnUse" gradientTransform="translate(58.94 83.86) scale(72.6051)">
      <stop offset="0" stop-color="#30353a"/>
      <stop offset="1" stop-color="#9fa3a6"/>
    </linearGradient>
  </defs>
</svg>