<svg viewBox="0 0 190 180" xmlns="http://www.w3.org/2000/svg" fill-rule="evenodd" clip-rule="evenodd" stroke-linejoin="round" stroke-miterlimit="1.41">
  <g fill-rule="nonzero">
    <path d="M55.18 98.39l-4.15 4.15-4.15-4.15a2.7 2.7 0 0 0-3.8 3.8l4.15 4.15-4.15 4.14a2.69 2.69 0 1 0 3.8 3.8l4.15-4.14 4.15 4.14a2.7 2.7 0 0 0 3.8-3.8l-4.15-4.14 4.15-4.15a2.7 2.7 0 0 0-3.8-3.8z" fill="url(#house-1)"/>
    <path d="M83.6 98.39l-4.14 4.15-4.16-4.15a2.69 2.69 0 0 0-3.8 3.8l4.16 4.15-4.15 4.14a2.69 2.69 0 0 0 3.8 3.8l4.15-4.14 4.14 4.14a2.68 2.68 0 0 0 3.8-3.8l-4.15-4.14 4.15-4.15a2.69 2.69 0 1 0-3.8-3.8z" fill="url(#house-2)"/>
    <path d="M138.3 40.04a2.68 2.68 0 0 0 .26 3.79l43.2 37.6h-17.54a2.69 2.69 0 0 0-2.7 2.68v89.06c0 .78-.62 1.41-1.4 1.41H29.56a1.4 1.4 0 0 1-1.4-1.4v-44.89a2.69 2.69 0 1 0-5.38 0v44.89a6.78 6.78 0 0 0 6.78 6.77h130.57a6.78 6.78 0 0 0 6.78-6.77V86.8h18.13a4.11 4.11 0 0 0 3.89-2.7c.6-1.63.15-3.43-1.17-4.57l-45.67-39.75a2.68 2.68 0 0 0-3.78.26z" fill="url(#house-3)"/>
    <path d="M45.56 129.87a4.65 4.65 0 0 0-4.65 4.64v10.94a4.65 4.65 0 0 0 4.65 4.65H56.5a4.66 4.66 0 0 0 4.65-4.65v-10.94c0-2.56-2.09-4.64-4.65-4.64H45.56zm.72 5.36h9.5v9.5h-9.5v-9.5z" fill="url(#house-4)"/>
    <path d="M130.83 129.87a4.65 4.65 0 0 0-4.65 4.64v10.94a4.65 4.65 0 0 0 4.65 4.65h10.94a4.66 4.66 0 0 0 4.65-4.65v-10.94a4.65 4.65 0 0 0-4.64-4.64h-10.95zm.72 5.36h9.5v9.5h-9.5v-9.5z" fill="url(#house-5)"/>
    <path d="M102.4 129.87a4.65 4.65 0 0 0-4.64 4.64v10.94a4.66 4.66 0 0 0 4.65 4.65h10.94a4.65 4.65 0 0 0 4.65-4.65v-10.94a4.65 4.65 0 0 0-4.65-4.64h-10.94zm.72 5.36h9.5v9.5h-9.5v-9.5z" fill="url(#house-6)"/>
    <path d="M73.98 129.87a4.66 4.66 0 0 0-4.65 4.64v10.94c0 2.57 2.1 4.65 4.65 4.65h10.95a4.65 4.65 0 0 0 4.64-4.65v-10.94a4.65 4.65 0 0 0-4.64-4.64H73.98zm.72 5.36h9.5v9.5h-9.5v-9.5z" fill="url(#house-7)"/>
    <path d="M35.52 88.87c-2 0-3.62 1.62-3.62 3.62v27.7c0 1.99 1.63 3.61 3.63 3.61H151.8c2 0 3.63-1.62 3.63-3.62v-27.7c0-2-1.63-3.61-3.63-3.61H35.52zm1.75 5.37h112.79v24.2H37.27v-24.2z" fill="url(#house-8)"/>
    <path d="M92.13 1.01L62.4 26.9c.21-.5.33-1.05.33-1.63v-7.9a4.2 4.2 0 0 0-4.2-4.2H26.99a4.2 4.2 0 0 0-4.2 4.2v7.9a4.2 4.2 0 0 0 4.2 4.2h1.67v26.79L1.92 79.52A4.11 4.11 0 0 0 .75 84.1a4.11 4.11 0 0 0 3.89 2.7h18.13v28.72a2.69 2.69 0 0 0 5.37 0V84.1c0-1.48-1.2-2.68-2.68-2.68H7.92L33.1 59.5c.59-.51.92-1.25.92-2.02V29.46h18.4v7.33a2.7 2.7 0 0 0 4.45 2.03L94.83 5.78l34.1 29.66a2.68 2.68 0 1 0 3.51-4.05L97.54 1a4.11 4.11 0 0 0-5.4 0zM28.15 18.53h29.21v5.56h-29.2v-5.56z" fill="url(#house-9)"/>
    <path d="M130.68 109.7a2.69 2.69 0 1 0 0 5.37h13.05a2.69 2.69 0 1 0 0-5.37h-13.05z" fill="url(#house-10)"/>
    <path d="M101.35 109.7a2.69 2.69 0 1 0 0 5.37h13.06a2.68 2.68 0 1 0 0-5.37h-13.06z" fill="url(#house-11)"/>
  </g>
  <defs>
    <linearGradient id="house-1" x2="1" gradientUnits="userSpaceOnUse" gradientTransform="translate(42.3 106.33) scale(17.4657)">
      <stop offset="0" stop-color="#30353a"/>
      <stop offset="1" stop-color="#9fa3a6"/>
    </linearGradient>
    <linearGradient id="house-2" x2="1" gradientUnits="userSpaceOnUse" gradientTransform="translate(70.72 106.33) scale(17.4661)">
      <stop offset="0" stop-color="#30353a"/>
      <stop offset="1" stop-color="#9fa3a6"/>
    </linearGradient>
    <linearGradient id="house-3" x2="1" gradientUnits="userSpaceOnUse" gradientTransform="translate(22.77 109.54) scale(166.412)">
      <stop offset="0" stop-color="#30353a"/>
      <stop offset="1" stop-color="#9fa3a6"/>
    </linearGradient>
    <linearGradient id="house-4" x2="1" gradientUnits="userSpaceOnUse" gradientTransform="translate(40.91 139.98) scale(20.2395)">
      <stop offset="0" stop-color="#30353a"/>
      <stop offset="1" stop-color="#9fa3a6"/>
    </linearGradient>
    <linearGradient id="house-5" x2="1" gradientUnits="userSpaceOnUse" gradientTransform="translate(126.18 139.98) scale(20.239)">
      <stop offset="0" stop-color="#30353a"/>
      <stop offset="1" stop-color="#9fa3a6"/>
    </linearGradient>
    <linearGradient id="house-6" x2="1" gradientUnits="userSpaceOnUse" gradientTransform="translate(97.76 139.98) scale(20.239)">
      <stop offset="0" stop-color="#30353a"/>
      <stop offset="1" stop-color="#9fa3a6"/>
    </linearGradient>
    <linearGradient id="house-7" x2="1" gradientUnits="userSpaceOnUse" gradientTransform="translate(69.34 139.98) scale(20.2395)">
      <stop offset="0" stop-color="#30353a"/>
      <stop offset="1" stop-color="#9fa3a6"/>
    </linearGradient>
    <linearGradient id="house-8" x2="1" gradientUnits="userSpaceOnUse" gradientTransform="translate(31.9 106.33) scale(123.523)">
      <stop offset="0" stop-color="#30353a"/>
      <stop offset="1" stop-color="#9fa3a6"/>
    </linearGradient>
    <linearGradient id="house-9" x2="1" gradientUnits="userSpaceOnUse" gradientTransform="translate(.49 59.1) scale(132.875)">
      <stop offset="0" stop-color="#30353a"/>
      <stop offset="1" stop-color="#9fa3a6"/>
    </linearGradient>
    <linearGradient id="house-10" x2="1" gradientUnits="userSpaceOnUse" gradientTransform="translate(128 112.38) scale(18.429)">
      <stop offset="0" stop-color="#30353a"/>
      <stop offset="1" stop-color="#9fa3a6"/>
    </linearGradient>
    <linearGradient id="house-11" x2="1" gradientUnits="userSpaceOnUse" gradientTransform="translate(98.66 112.38) scale(18.429)">
      <stop offset="0" stop-color="#30353a"/>
      <stop offset="1" stop-color="#9fa3a6"/>
    </linearGradient>
  </defs>
</svg>