<svg viewBox="0 0 158 161" xmlns="http://www.w3.org/2000/svg" fill-rule="evenodd" clip-rule="evenodd" stroke-linejoin="round" stroke-miterlimit="1.41">
  <g fill-rule="nonzero">
    <path d="M150.23 34.53V149.9c0 1.95-1.6 3.55-3.55 3.55H12.02a3.55 3.55 0 0 1-3.54-3.55v-13.15a3.78 3.78 0 0 0-7.55 0v13.15a11.1 11.1 0 0 0 11.1 11.1h134.65a11.1 11.1 0 0 0 11.1-11.1V34.53a3.77 3.77 0 0 0-7.55 0z" fill="url(#plug-1)"/>
    <path d="M12.02.73a11.1 11.1 0 0 0-11.1 11.1v111.93a3.78 3.78 0 0 0 7.56 0V11.83c0-1.95 1.59-3.55 3.55-3.55h134.65c1.95 0 3.55 1.6 3.55 3.55v9.73a3.78 3.78 0 0 0 7.54 0v-9.73a11.1 11.1 0 0 0-11.1-11.1H12.02z" fill="url(#plug-2)"/>
    <path d="M74.56 40.22a8.82 8.82 0 0 0-8.82 8.8v11.85a3.16 3.16 0 0 0 6.3 0V49.03a2.5 2.5 0 0 1 2.52-2.5h6.06a2.51 2.51 0 0 1 2.51 2.5v32.05c0 1.38-1.13 2.5-2.5 2.5h-6.07a2.51 2.51 0 0 1-2.51-2.5V70.92a3.16 3.16 0 0 0-6.3 0v10.15a8.82 8.82 0 0 0 8.8 8.82h6.07a8.82 8.82 0 0 0 8.81-8.81V49.03a8.83 8.83 0 0 0-8.8-8.81h-6.07zm12.79 64.24v6.07a8.83 8.83 0 0 0 8.82 8.81H108a3.16 3.16 0 0 0 0-6.3H96.17a2.51 2.51 0 0 1-2.51-2.51v-6.07a2.51 2.51 0 0 1 2.5-2.51h32.05c1.39 0 2.51 1.13 2.51 2.51v6.07c0 1.38-1.12 2.5-2.5 2.5h-10.17a3.16 3.16 0 0 0 0 6.31h10.16a8.82 8.82 0 0 0 8.81-8.81v-6.07a8.82 8.82 0 0 0-8.8-8.81H96.16a8.83 8.83 0 0 0-8.82 8.81zm-58.42-8.81a8.83 8.83 0 0 0-8.82 8.81v6.07a8.83 8.83 0 0 0 8.82 8.81h32.04a8.83 8.83 0 0 0 8.82-8.81v-6.07a8.83 8.83 0 0 0-8.82-8.81h-14.5a3.16 3.16 0 0 0-3.15 3.15 3.16 3.16 0 0 0 3.16 3.15h14.5a2.52 2.52 0 0 1 2.5 2.51v6.07c0 1.38-1.13 2.5-2.5 2.5H28.92a2.51 2.51 0 0 1-2.51-2.5v-6.07a2.52 2.52 0 0 1 2.5-2.51h7.53a3.16 3.16 0 0 0 0-6.3h-7.52z" fill="url(#plug-3)"/>
  </g>
  <defs>
    <linearGradient id="plug-1" x2="1" gradientUnits="userSpaceOnUse" gradientTransform="translate(.92 95.87) scale(156.848)">
      <stop offset="0" stop-color="#30353a"/>
      <stop offset="1" stop-color="#9fa3a6"/>
    </linearGradient>
    <linearGradient id="plug-2" x2="1" gradientUnits="userSpaceOnUse" gradientTransform="translate(.92 64.14) scale(156.848)">
      <stop offset="0" stop-color="#30353a"/>
      <stop offset="1" stop-color="#9fa3a6"/>
    </linearGradient>
    <linearGradient id="plug-3" x2="1" gradientUnits="userSpaceOnUse" gradientTransform="translate(20.11 79.78) scale(116.915)">
      <stop offset="0" stop-color="#30353a"/>
      <stop offset="1" stop-color="#9fa3a6"/>
    </linearGradient>
  </defs>
</svg>