<svg viewBox="0 0 191 180" xmlns="http://www.w3.org/2000/svg" fill-rule="evenodd" clip-rule="evenodd" stroke-linejoin="round" stroke-miterlimit="1.41">
  <path d="M35.95 1.63a10.42 10.42 0 0 0-4.85 6.42l-5.95 22.8a8.7 8.7 0 0 0 6.2 10.6h.01l-3.29 12.6a9.73 9.73 0 0 0 1.03 7.41 9.7 9.7 0 0 0 5.97 4.52l26.07 6.8c-.81 5.06 2.35 10.01 7.4 11.33l.65.17-16.36 32.16c-12.1 4.54-24.16 9.05-32.5 12.09v-12.68a9.52 9.52 0 0 0-9.5-9.5H3.65a2.7 2.7 0 0 0-2.69 2.69v67.55c0 1.49 1.2 2.7 2.7 2.7h7.15a9.52 9.52 0 0 0 9.51-9.52v-22.46c3.12-1.1 8.73-3.18 18.87-6.97a2.69 2.69 0 0 0-1.89-5.04c-8.41 3.14-13.68 5.1-16.98 6.29v-7.33c8.58-3.1 22.02-8.13 35.37-13.14.63-.24 1.15-.7 1.46-1.3l17.37-34.15 7.45 1.95-19.7 37.25c0 .03-.02.06-.03.08a3.37 3.37 0 0 1-1.87 1.7l-10.95 4.1a2.7 2.7 0 0 0 1.89 5.05l10.95-4.1c2.1-.8 3.8-2.33 4.8-4.34L87.33 89l4.45 1.16a10.07 10.07 0 0 0 12-6.27l45.44 11.86a6.6 6.6 0 0 0 7.53-3.38c9.15-1.66 17.06-9.3 19.68-19.36a27.61 27.61 0 0 0-1-17.23c2.7-.9 5.26-2.3 7.5-4.18l5.3-4.42a5.5 5.5 0 1 0-2.15-9.58L83.87 10.95a2.7 2.7 0 1 0-1.36 5.2L184.7 42.83c.04.01.08.02.1.1.02.09-.01.1-.04.14l-5.3 4.42a17.92 17.92 0 0 1-8.45 3.88l-1.82.21-.64.04h-.16a18 18 0 0 1-4.22-.41l-.65-.15-24.61-6.43a22.65 22.65 0 0 0-18.76 3.34l-.07.05-1.76 1.36-.7.63-.02.02h-.01l-1.82 1.48-1.55 1-1.38.69c-.73.32-1.49.6-2.25.82h-.03a17.37 17.37 0 0 1-9.23.13L35.33 36.92l-2.61-.69a3.27 3.27 0 0 1-2.01-1.52 3.27 3.27 0 0 1-.35-2.5L36.3 9.4a5.1 5.1 0 0 1 6.27-3.68l27.4 7.15a2.68 2.68 0 0 0 3.29-1.92 2.7 2.7 0 0 0-1.93-3.29L43.93.52a10.44 10.44 0 0 0-7.97 1.1zm114.63 88.92L36.41 60.77a4.36 4.36 0 0 1-3.14-5.36l3.3-12.6 63.4 16.54a22.6 22.6 0 0 0 20.5-4.67l1.8-1.58 1.95-1.36 1.24-.68a17.31 17.31 0 0 1 12.08-1.23l13.53 3.53 9.23 2.42-8.75 33.53c-.1.37-.1.74-.05 1.1a1.2 1.2 0 0 1-.93.14zm19.46-33.63h.02a22.02 22.02 0 0 1 1.16 14.74c-1.83 7.02-6.77 12.54-12.74 14.7l7.68-29.43a25.02 25.02 0 0 0 3.88-.01zm-76.9 28.04L69.9 78.9a4.7 4.7 0 0 1-3.5-4.75l25.56 6.68 6.56 1.7a4.7 4.7 0 0 1-5.38 2.43zM6.35 111.73h4.47a4.13 4.13 0 0 1 4.12 4.12v53.92a4.13 4.13 0 0 1-4.12 4.13H6.35v-62.17z" fill="url(#security1)" fill-rule="nonzero"/>
  <defs>
    <linearGradient id="security1" x2="1" gradientUnits="userSpaceOnUse" gradientTransform="translate(.97 89.73) scale(189.232)">
      <stop offset="0" stop-color="#30353a"/>
      <stop offset="1" stop-color="#9fa3a6"/>
    </linearGradient>
  </defs>
</svg>